<svg xmlns="http://www.w3.org/2000/svg" viewBox="0 0 111.1 116.05"><defs><style>.cls-1{fill:#f2ba52;}.cls-2{fill:#fff;}.cls-3{fill:#2b2c4d;}</style></defs><title>capacitacion_illus</title><g id="Capa_2" data-name="Capa 2"><g id="Capa_1-2" data-name="Capa 1"><path class="cls-1" d="M78.38,37.52c-4.77,0-9.54,0-14.3,0a2.21,2.21,0,0,1-1.35-.36,1.74,1.74,0,0,1-.47-1.34,2,2,0,0,1,1-1.09,2.4,2.4,0,0,1,1.15-.12H92.42c.19,0,.37,0,.55,0a1.51,1.51,0,0,1,1.62,1.49A1.45,1.45,0,0,1,93,37.52H78.38"/><path class="cls-1" d="M51.66,52H41.11c-.28,0-.56,0-.84,0a1.49,1.49,0,0,1,0-3c.81-.1,1.66.23,2.41-.7l17-.7A3.38,3.38,0,0,0,62.83,49c1.07,0,1.77.64,1.75,1.53A1.55,1.55,0,0,1,62.87,52H51.66Z"/><path class="cls-1" d="M108.1,69h-82a3,3,0,0,1-3-3V9a3,3,0,0,1,3-3h82a3,3,0,0,1,3,3V66a3,3,0,0,1-3,3"/><path class="cls-2" d="M101.1,64h-72a3,3,0,0,1-3-3V15a3,3,0,0,1,3-3h72a3,3,0,0,1,3,3V61a3,3,0,0,1-3,3"/><path class="cls-2" d="M31.1,14a8.76,8.76,0,0,1-8.5,9,8.76,8.76,0,0,1-8.5-9,8.76,8.76,0,0,1,8.5-9,8.76,8.76,0,0,1,8.5,9"/><path class="cls-2" d="M28.1,33h-13a3,3,0,0,1-3-3V3a3,3,0,0,1,3-3h13a3,3,0,0,1,3,3V30a3,3,0,0,1-3,3"/><path class="cls-3" d="M53.1,42H29.6a1.5,1.5,0,1,1,0-3h23a1.5,1.5,0,0,1,0,3"/><path class="cls-3" d="M58.1,36a6,6,0,1,1-6-6,6,6,0,0,1,6,6"/><path class="cls-2" d="M51.1,39h-8a3,3,0,1,1,0-6h8a3,3,0,0,1,0,6"/><path class="cls-1" d="M69.11,23.52c-7.35,0-14.7,0-22,0A4.77,4.77,0,0,1,45,23.15a1.4,1.4,0,0,1-.73-1.34c.13-.42.84-.84,1.46-1.09a5.61,5.61,0,0,1,1.78-.12H90.76c.28,0,.56,0,.84,0,1.53.06,2.5.63,2.5,1.49s-1,1.43-2.52,1.44q-11.23,0-22.47,0"/><path class="cls-1" d="M67.11,54.52c-7.35,0-14.7,0-22,0A4.77,4.77,0,0,1,43,54.15a1.4,1.4,0,0,1-.73-1.34c.13-.42.84-.84,1.46-1.09a5.61,5.61,0,0,1,1.78-.12H88.76c.28,0,.56,0,.84,0,1.53.06,2.5.63,2.5,1.49s-1,1.43-2.52,1.44H67.11"/><rect class="cls-2" x="21.1" y="43" width="6" height="31"/><rect class="cls-2" x="21.1" y="27" width="14" height="34"/><path class="cls-3" d="M22.88,113.52a7.27,7.27,0,0,1-12.79-4.85q0-15.84,0-31.69V73.37l-.7.29A6.7,6.7,0,0,1,.07,67.87c-.13-2.27,0-4.55,0-6.82Q0,54,0,47A16.67,16.67,0,0,1,14.74,30.15a16.48,16.48,0,0,1,2-.11c4.12,0,8.24,0,12.36,0a25.07,25.07,0,0,1,3.45.36c1.16.19,1.76,0,1.56,1.06a1.76,1.76,0,0,1-2.17,1.31c-1.41-.15-2.83.71-4.24.69-3.6,0-7.2,0-10.8,0A13.23,13.23,0,0,0,3.45,46.81c0,6.82,0,13.64,0,20.46a3.31,3.31,0,0,0,5.83,2.32,3.36,3.36,0,0,0,.8-2.29V45.77a1.73,1.73,0,0,1,1.68-1.9,1.71,1.71,0,0,1,1.74,1.9q0,14.11,0,28.21,0,17.42,0,34.82a3.81,3.81,0,1,0,7.62-.06q0-15,0-29.91c0-.24,0-.48,0-.71a1.7,1.7,0,0,1,1.76-1.74,1.66,1.66,0,0,1,1.66,1.76c0,2.46,0,4.92,0,7.39q0,11.58,0,23.16a3.82,3.82,0,1,0,7.63,0c0-7.43,0-14.87,0-22.31,0-.26,0-.52,0-.78a1.71,1.71,0,0,1,3.41.05V86c0,7.55,0,15.11,0,22.66a7.27,7.27,0,0,1-12.77,4.85"/><path class="cls-3" d="M34.14,13.6A11.26,11.26,0,1,1,22.89,2.35,11.25,11.25,0,0,1,34.14,13.6m-3.43,0a7.84,7.84,0,1,0-7.79,7.85,7.81,7.81,0,0,0,7.79-7.85"/><path class="cls-3" d="M53.1,33H27.6a1.5,1.5,0,0,1,0-3h25a1.5,1.5,0,0,1,0,3"/></g></g></svg>