<svg id="Capa_1" data-name="Capa 1" xmlns="http://www.w3.org/2000/svg" viewBox="0 0 472.96 472.97"><defs><style>.cls-1{fill:#2b2c4d;}.cls-2{fill:#f2ba52;}.cls-3{fill:#f6f6f6;}</style></defs><title>gde_illus</title><path class="cls-1" d="M772,540c0,128.13-103.87,232-232,232S308,668.13,308,540,411.86,308,540,308,772,411.87,772,540" transform="translate(-303.52 -303.52)"/><path class="cls-2" d="M540,776.48C409.6,776.48,303.52,670.4,303.52,540S409.6,303.52,540,303.52,776.48,409.6,776.48,540,670.4,776.48,540,776.48Zm0-464c-125.46,0-227.54,102.08-227.54,227.54S414.54,767.54,540,767.54,767.54,665.47,767.54,540,665.46,312.46,540,312.46Z" transform="translate(-303.52 -303.52)"/><path class="cls-3" d="M545.72,412.4l0-.16,0,.16a53.81,53.81,0,0,1,8.43-.76c7.9,0,9.12,2.61,9.23,2.92a1.19,1.19,0,0,0,1.08.66,1.58,1.58,0,0,0,.41-.05.68.68,0,0,0,.5-.29,1,1,0,0,0-.06-.87c0-.05-1.86-5.11-10-6a33.8,33.8,0,0,0-9,.26c-1.25.22-1.66,3.17-1.66,3.2a.85.85,0,0,0,.16.76,1.08,1.08,0,0,0,.87.16" transform="translate(-303.52 -303.52)"/><path class="cls-3" d="M532.25,415.78h0c-1.87-.85-6.19-.67-6.23-.67-6.88.22-8.83,4.52-8.85,4.57a1.18,1.18,0,0,0-.08,1.05.81.81,0,0,0,.54.34,1.48,1.48,0,0,0,1.84-.74s.46-1.33,3.44-2.07a.15.15,0,0,1,.16.05.17.17,0,0,1,0,.17,3.57,3.57,0,0,0-.25,1.29,3.49,3.49,0,1,0,7,0,3.61,3.61,0,0,0-.27-1.38.15.15,0,0,1,0-.17.16.16,0,0,1,.17-.05,4.88,4.88,0,0,1,2.71,2.45c.2.41.6.66,2,.66a1.13,1.13,0,0,0,.9-.29.52.52,0,0,0,0-.44c-.86-3.65-3.14-4.75-3.16-4.77" transform="translate(-303.52 -303.52)"/><path class="cls-3" d="M545.43,421.28c1.41,0,1.81-.25,2-.66a4.87,4.87,0,0,1,2.7-2.44.17.17,0,0,1,.17,0,.17.17,0,0,1,0,.18,3.49,3.49,0,1,0,6.69,1.38,3.62,3.62,0,0,0-.25-1.3.14.14,0,0,1,0-.17.18.18,0,0,1,.16-.05c2.93.73,3.4,2,3.46,2.12a1.42,1.42,0,0,0,1.76.71.77.77,0,0,0,.59-.35,1.17,1.17,0,0,0-.07-1.05s-2-4.34-8.85-4.57c-.45,0-4.45-.14-6.24.67a7,7,0,0,0-3.14,4.73.52.52,0,0,0,0,.48c.16.24.58.29.9.29" transform="translate(-303.52 -303.52)"/><path class="cls-3" d="M515,415.16h0a1.62,1.62,0,0,0,.41.06,1.17,1.17,0,0,0,1.09-.69c.08-.19,2-4.65,17.66-2.14a1.17,1.17,0,0,0,.89-.16.86.86,0,0,0,.16-.75c0-.12-.41-3-1.65-3.21a31.27,31.27,0,0,0-5.44-.45,30,30,0,0,0-3.56.19c-8.19.88-10,5.92-10,6a1,1,0,0,0-.07.91.67.67,0,0,0,.46.28" transform="translate(-303.52 -303.52)"/><path class="cls-3" d="M646.93,585.13a1.77,1.77,0,0,0-.61-1.57,1.72,1.72,0,0,0-1.35-.4,25.7,25.7,0,0,0,1.06-2.52,37.33,37.33,0,0,0,2.08-12.48,1.76,1.76,0,0,0-2.11-1.75c.29-.81.55-1.64.77-2.48a37.63,37.63,0,0,0,.83-12.62,1.75,1.75,0,0,0-.92-1.4,1.73,1.73,0,0,0-1.37-.13,27.09,27.09,0,0,0,.61-2.9,37.35,37.35,0,0,0-.39-12.65,1.81,1.81,0,0,0-1.06-1.31,1.84,1.84,0,0,0-1-.09c.13-.67.23-1.37.3-2.06a37.37,37.37,0,0,0-1-12.61,1.75,1.75,0,0,0-1.11-1.25,1.73,1.73,0,0,0-1.66.24l-.13.1a28.52,28.52,0,0,0,.09-3.22,37.53,37.53,0,0,0-2.71-12.36,1.77,1.77,0,0,0-2.74-.74,27,27,0,0,0-.23-3,37.46,37.46,0,0,0-4-12,1.76,1.76,0,0,0-2.8-.46c-.14-.91-.32-1.83-.55-2.73a38,38,0,0,0-5.35-11.5,1.81,1.81,0,0,0-1.48-.78,1.75,1.75,0,0,0-1.47.81l0,.09a28.26,28.26,0,0,0-1.17-3.17,37.44,37.44,0,0,0-7.13-10.48,1.76,1.76,0,0,0-1.65-.52,1.78,1.78,0,0,0-1.14.8,27.28,27.28,0,0,0-1.7-3.07,36.9,36.9,0,0,0-8.53-9.12,1.76,1.76,0,0,0-2.72.73,20.62,20.62,0,0,0-9.22-6.91c.49.05,1,.08,1.44.11a27.25,27.25,0,0,0,8.92-.83,2.64,2.64,0,0,0-.64-5.15c-5.48-.26-7.54-1.39-10.14-2.82l-.77-.42,12.11-1.81a2.63,2.63,0,0,0,0-5.21l-11.5-1.66c1.28-.37,2.51-.76,3.67-1.16a27.18,27.18,0,0,0,7.92-4.2,2.63,2.63,0,0,0-2.56-4.51c-5.16,1.87-7.49,1.62-10.44,1.31l-.84-.09L593,406.9a2.66,2.66,0,0,0,1.07-3.27,2.63,2.63,0,0,0-3.07-1.54L579.66,405c1-.83,2-1.68,3-2.51a27.14,27.14,0,0,0,5.71-6.92,2.64,2.64,0,0,0-.71-3.32,2.61,2.61,0,0,0-3.37.14c-4.06,3.71-6.3,4.37-9.15,5.22l-.78.23,7.25-9.82a2.63,2.63,0,0,0-3.67-3.68l-9.38,7c.66-1.2,1.27-2.37,1.82-3.5a28.2,28.2,0,0,0,2.63-8.6,2.62,2.62,0,0,0-5-1.36c-2.33,5-4.15,6.47-6.48,8.36l-.59.49,3-11.84a2.62,2.62,0,0,0-4.79-2l-6,10.14c.16-1.37.28-2.7.35-4a27.58,27.58,0,0,0-.86-9,2.62,2.62,0,0,0-5.12.66c-.25,5.5-1.36,7.58-2.78,10.2-.11.22-.23.44-.36.67l-1.75-12.05a2.62,2.62,0,0,0-5.19,0l-1.61,11.46c-.36-1.26-.74-2.47-1.14-3.61a27.6,27.6,0,0,0-4.17-7.95,2.61,2.61,0,0,0-3.32-.62A2.64,2.64,0,0,0,526,372.1c1.85,5.19,1.61,7.53,1.29,10.55l-.09.83-6.34-10.56a2.63,2.63,0,0,0-3.26-1.07,2.66,2.66,0,0,0-1.52,3.09l2.88,11.27c-.82-1-1.64-2-2.44-2.93a27.79,27.79,0,0,0-6.9-5.75,2.63,2.63,0,0,0-3.17,4.1c3.7,4.08,4.36,6.33,5.2,9.2.08.26.16.54.25.82L502,384.34a2.63,2.63,0,0,0-3.66,3.69l7,9.36c-1.16-.65-2.3-1.25-3.41-1.78a27,27,0,0,0-8.56-2.65,2.63,2.63,0,0,0-1.36,5c5,2.34,6.44,4.17,8.34,6.54l.48.59-11.85-3a2.64,2.64,0,0,0-2,4.82l10.08,6c-1.35-.15-2.65-.26-3.89-.33a27.89,27.89,0,0,0-8.92.84,2.64,2.64,0,0,0,.66,5.15c5.48.26,7.53,1.37,10.16,2.81l.68.37-12.05,1.77a2.63,2.63,0,0,0,0,5.21l11.66,1.71c-1.32.37-2.58.78-3.78,1.2a27.89,27.89,0,0,0-7.91,4.21,2.63,2.63,0,0,0,2.57,4.5,22.22,22.22,0,0,1,6.53-1.51,48.25,48.25,0,0,0-5.5,5.41c-.54.7-1.06,1.42-1.52,2.13a1.73,1.73,0,0,0-1-.85,1.75,1.75,0,0,0-1.65.27,37.86,37.86,0,0,0-8.7,9.23,26.91,26.91,0,0,0-1.7,3,1.77,1.77,0,0,0-2.83-.35,37.66,37.66,0,0,0-7.13,10.48,27.6,27.6,0,0,0-1.11,3,1.74,1.74,0,0,0-1.21-.58,1.73,1.73,0,0,0-1.51.72,37.32,37.32,0,0,0-5.82,11.24,26.64,26.64,0,0,0-.74,3.09l-.05-.06a1.77,1.77,0,0,0-2.93.29,37.59,37.59,0,0,0-4.07,12,26.07,26.07,0,0,0-.27,3h0a1.78,1.78,0,0,0-2.88.66,37.66,37.66,0,0,0-2.53,12.4,28.66,28.66,0,0,0,.11,2.95A1.78,1.78,0,0,0,437,518a37.35,37.35,0,0,0-1,12.61c.08.75.19,1.5.33,2.24a1.69,1.69,0,0,0-.86.13,1.76,1.76,0,0,0-1.06,1.3,37.6,37.6,0,0,0-.39,12.65,27.7,27.7,0,0,0,.63,3,1.69,1.69,0,0,0-.8.19,1.73,1.73,0,0,0-1,1.37,37.09,37.09,0,0,0,.4,12.64c.19.86.42,1.71.68,2.54a1.76,1.76,0,0,0-2.09,1.71,37.29,37.29,0,0,0,1.73,12.53,27.08,27.08,0,0,0,1.31,3.24c-.24-.08-.38-.11-.38-.11a1.76,1.76,0,0,0-1.63.4,1.79,1.79,0,0,0-.56,1.59,37.44,37.44,0,0,0,3.89,12c.37.69.77,1.36,1.19,2a1.69,1.69,0,0,0-.92.51,1.74,1.74,0,0,0-.43,1.63,37.39,37.39,0,0,0,4.76,11.72q.79,1.23,1.68,2.34a1.71,1.71,0,0,0-1.34.7,1.79,1.79,0,0,0-.25,1.67,37.68,37.68,0,0,0,6.1,11.1,24.1,24.1,0,0,0,1.78,2,1.72,1.72,0,0,0-1.14.83,1.75,1.75,0,0,0-.05,1.69A37.37,37.37,0,0,0,455,644.49c.62.6,1.27,1.17,1.93,1.7a1.73,1.73,0,0,0-1,.94,1.78,1.78,0,0,0,.12,1.69,37.75,37.75,0,0,0,8.4,9.5,29,29,0,0,0,3,2l-.54.16a1.77,1.77,0,0,0-.68,2.9,43.6,43.6,0,0,0,9.78,7.86,26.22,26.22,0,0,0,8,3.05,17.63,17.63,0,0,0,6.38.1,97.63,97.63,0,0,0,18.36,10.32,87.8,87.8,0,0,0,16,5.07c.77.17,1.55.33,2.36.47l1.81.33a26.76,26.76,0,0,0,3,.8,8.16,8.16,0,0,0,0,3.54c-1.92,1.89-8.6,7.8-18.15,9l-.57.07.3.5a14.45,14.45,0,0,0,2.63,3.11l.14.12.18,0a36.57,36.57,0,0,0,17.5-9,9.42,9.42,0,0,0,.72.69c-.66,2.46-3.23,8.21-13.06,10.88l-1,.29,1,.42a23.73,23.73,0,0,0,5.78,1.58h.11l.09,0c7.35-3.36,10-8.51,10.89-11.37a8.07,8.07,0,0,0,2.9,0c.92,2.86,3.55,8,10.89,11.36l.1,0h.11a23.85,23.85,0,0,0,5.78-1.58l1-.42-1-.29c-9.82-2.67-12.4-8.39-13.06-10.84a8.4,8.4,0,0,0,.76-.7,36.5,36.5,0,0,0,17.45,8.92l.19,0,.14-.12a14.77,14.77,0,0,0,2.63-3.11l.3-.5-.57-.07A32.43,32.43,0,0,1,548,695a8.48,8.48,0,0,0,.23-1.93,8.63,8.63,0,0,0-.17-1.68,27,27,0,0,0,2.79-.74l2.06-.36c2.55-.43,5-1,7.4-1.61a86.76,86.76,0,0,0,15.8-6,77.86,77.86,0,0,0,13.49-8.3,17.69,17.69,0,0,0,6.39-.1,26,26,0,0,0,8-3.05,43.38,43.38,0,0,0,9.78-7.86,1.76,1.76,0,0,0-.68-2.89,3.16,3.16,0,0,0-.44-.14,27.51,27.51,0,0,0,3.06-2.08,38.12,38.12,0,0,0,8.4-9.5,1.78,1.78,0,0,0,.12-1.69,1.76,1.76,0,0,0-1-.94c.66-.53,1.31-1.1,1.93-1.7a37.58,37.58,0,0,0,7.35-10.33,1.75,1.75,0,0,0,0-1.69,1.78,1.78,0,0,0-1.42-.87,25,25,0,0,0,2-2.15,37.46,37.46,0,0,0,6.1-11.1,1.81,1.81,0,0,0-.19-1.6,1.77,1.77,0,0,0-1.39-.78h-.16a26.43,26.43,0,0,0,1.63-2.22,37.51,37.51,0,0,0,5-11.65,1.79,1.79,0,0,0-.41-1.64,1.77,1.77,0,0,0-1.57-.55,28.84,28.84,0,0,0,1.48-2.61,37.39,37.39,0,0,0,3.47-12.17m-2-14.5h0a.19.19,0,0,1,.08.16,32.83,32.83,0,0,1-1.74,8.66,21.78,21.78,0,0,1-3.83,6.77,16.63,16.63,0,0,1-4.6,3.83.12.12,0,0,1-.08,0,.15.15,0,0,1-.13-.07,20.22,20.22,0,0,1-3.71-12.67,28.26,28.26,0,0,1,.5-4.75.19.19,0,0,1,.13-.14.18.18,0,0,1,.17.06,24.38,24.38,0,0,1,3.54,6.54,1.33,1.33,0,0,0,1.16.89h.09a1.31,1.31,0,0,0,1.16-.74,22,22,0,0,1,7.08-8.55.17.17,0,0,1,.17,0m-.43-16.51a.15.15,0,0,1,.18,0,.16.16,0,0,1,.1.14,32.7,32.7,0,0,1-.87,8.8,22.06,22.06,0,0,1-3.15,7.12,16.57,16.57,0,0,1-4.19,4.24.1.1,0,0,1-.09,0,.17.17,0,0,1-.12-.06c-4.5-5.11-4.92-12.68-4.78-16.73a.18.18,0,0,1,.11-.15.17.17,0,0,1,.18,0,28.2,28.2,0,0,1,4,5.91,1.26,1.26,0,0,0,1.23.72,1.31,1.31,0,0,0,1.16-.86,21.81,21.81,0,0,1,6.19-9.18m-1.78-16.78h0a.17.17,0,0,1,.28.09,32.64,32.64,0,0,1,0,8.84,21.75,21.75,0,0,1-2.44,7.39,16.26,16.26,0,0,1-3.82,4.7.12.12,0,0,1-.1,0,.16.16,0,0,1-.11,0c-4.44-3.69-5.78-11.68-6.19-16.11a.19.19,0,0,1,.09-.16.15.15,0,0,1,.19,0,28.55,28.55,0,0,1,4.47,5.36,1.3,1.3,0,0,0,2.37-.37,21.82,21.82,0,0,1,5.27-9.76m-2.63-15.94h0a.14.14,0,0,1,.17,0,.15.15,0,0,1,.12.13,33,33,0,0,1,.4,8.82,21.89,21.89,0,0,1-2.09,7.51,16.73,16.73,0,0,1-3.53,4.81.16.16,0,0,1-.11,0,.21.21,0,0,1-.11,0c-3.73-3.17-5.51-7.84-6.34-11.2a33.75,33.75,0,0,1-.81-4.69.16.16,0,0,1,.09-.16.17.17,0,0,1,.18,0,29,29,0,0,1,4.88,5.27,1.3,1.3,0,0,0,2.34-.47,21.89,21.89,0,0,1,4.81-10m-86,86.77a2,2,0,0,0,1,1.14c5.47,2.68,10,8.25,11.66,10.52a.08.08,0,0,1,0,.08,4.63,4.63,0,0,1-4.66,2.8h-.24s0,0-.06-.05a20,20,0,0,0-3.06-4.48,41.19,41.19,0,0,0-6-5.09,2,2,0,0,0-2.75.49,2,2,0,0,0,.48,2.77,36.25,36.25,0,0,1,5.25,4.43,14.86,14.86,0,0,1,2.47,3.56.06.06,0,0,1,0,.06A5.84,5.84,0,0,1,557,626a3.82,3.82,0,0,1-3.41,1,.09.09,0,0,1-.06,0,25.06,25.06,0,0,0-4.16-6.38,2,2,0,0,0-2.79-.16,2,2,0,0,0-.17,2.8,21.78,21.78,0,0,1,3.28,4.85.08.08,0,0,1,0,.09,7.08,7.08,0,0,1-1.42.74,7.84,7.84,0,0,1-4.21.43s0,0,0,0a0,0,0,0,1,0-.06,6.32,6.32,0,0,0,1.17-2.95,5.75,5.75,0,0,0-1.95-4.81,6,6,0,0,0-5.47-1.36h-.06a.08.08,0,0,1,0,0,5.74,5.74,0,0,0-2.14-3.84,6.84,6.84,0,0,0-6.89-1.42l-.14,0-.07,0a.07.07,0,0,1-.09,0A6.4,6.4,0,0,0,525,611.3a7.69,7.69,0,0,0-6-.37.09.09,0,0,1-.07,0,9,9,0,0,0-4.94-2c-2.91-.39-6.82,1.06-9.31,3.44h0c-13.15,7.08-30.14,14.75-36.83,17.71h0a.1.1,0,0,1-.07,0,132.33,132.33,0,0,1-9.17-21.89c-.7-2.17-1.35-4.41-1.95-6.64a.13.13,0,0,1,0-.06.06.06,0,0,1,.05,0c19.27-2.22,34.75-4.48,46-6.75,11.74-2.36,19.3-4.75,23.11-7.31l0,0c4.54-3.22,7.65-4.78,12-4.41,1.36.12,2.57.26,3.68.44a.06.06,0,0,1,.06.06.07.07,0,0,1-.05.08,12,12,0,0,0-3.1,1.59c-1.79,1.26-2.89,2.17-3.86,3a32.49,32.49,0,0,1-3,2.27,31.74,31.74,0,0,1-3.18,1.71c-2.6,1.28-4.66,2.29-5.3,4H523l.07,0a5.33,5.33,0,0,0,.86,5.3c2,2.73,5.17,2.55,7.76,2.41A22.17,22.17,0,0,0,540.8,601c1-.55,1.79-1.11,2.53-1.59a10.71,10.71,0,0,1,2.94-1.62l.11,0a12.74,12.74,0,0,1,8.16.83A44.81,44.81,0,0,1,562.6,603a53.9,53.9,0,0,1,11.84,11,.07.07,0,0,1,0,.06,4.07,4.07,0,0,1-1.14,2.38,4.77,4.77,0,0,1-3.36,1.09s0,0-.05,0c-1.85-2.5-6.81-8.65-13.12-11.75a2,2,0,0,0-2.65.91,2,2,0,0,0-.09,1.52M539.1,628.55l-.13.1h0c-.81.63-3.38,2.26-5.53,2.26a4.18,4.18,0,0,1-.72-.07,2.86,2.86,0,0,1-1.65-1,.08.08,0,0,1,0-.07c1-2.22,3.27-3.68,5.32-4.87,2.7-1.58,3.95-.68,4.08-.57.87.84.82,1.38.8,1.56-.11,1-1.47,2.23-2.12,2.63l-.06,0Zm-22.86-11.13c2.82-2.71,5-3.53,6.93-2.57a2.82,2.82,0,0,1,1.44,1.32,1.41,1.41,0,0,1,0,.68l0,0c-.46.3-.88.6-1.34.92-3,2.08-4.75,4.28-5.35,6.54a.09.09,0,0,1-.07.06h0a9.4,9.4,0,0,1-1.32-.34c-2.43-.8-2.56-2.13-2.6-2.57-.07-1.26.56-2.37,2.33-4.08m-2.74-2.87a11,11,0,0,0-3.34,5.05.08.08,0,0,1-.07,0h0c-.41,0-.81-.07-1.17-.13-1.42-.23-2.44-.71-2.67-1.25-.12-.26-.46-1,.51-2.32,1.41-1.86,4.67-3.34,6.69-3.05a.44.44,0,0,0,.16,0,5.85,5.85,0,0,1,1.26.26.08.08,0,0,1,0,.05s0,0,0,.07c-.46.37-.9.77-1.4,1.25m12,6.51c3.62-2.55,5.55-3.42,7.39-1.81a1.83,1.83,0,0,1,.8,1.34,4.09,4.09,0,0,1-1.64,2.3,12.8,12.8,0,0,0-4.71,5.38.07.07,0,0,1,0,0,14.52,14.52,0,0,1-2.14.19,5,5,0,0,1-2.72-.63,1.93,1.93,0,0,1-.82-1.52c-.21-2.07,2.34-4.19,3.89-5.29M565.7,445.45a.17.17,0,0,1-.06-.16.18.18,0,0,1,.12-.13,20.53,20.53,0,0,1,5-1,14.13,14.13,0,0,1,11.68,4.48.19.19,0,0,1,0,.16.14.14,0,0,1-.1.11,15.56,15.56,0,0,1-4.43.84h-.66a18.76,18.76,0,0,1-11.58-4.36m5.5,6.68H508.8a68.32,68.32,0,0,1,62.4,0m7.86-12.8a33.63,33.63,0,0,1-6.09,1.79,24.86,24.86,0,0,1-4.48.44,14.58,14.58,0,0,1-8.6-2.5.2.2,0,0,1-.07-.15.18.18,0,0,1,.08-.13,18.85,18.85,0,0,1,5.06-2,18.08,18.08,0,0,1,7.29-.22,21.37,21.37,0,0,1,6.83,2.47.2.2,0,0,1,.09.16.18.18,0,0,1-.11.14m-14.95-5.26a27.82,27.82,0,0,1-8.34,2.21,1.3,1.3,0,0,0-.57,2.37,28.69,28.69,0,0,1,5.45,5.09.18.18,0,0,1,0,.17.19.19,0,0,1-.16.1c-3.82-.12-11-1.24-16.14-7.4a.18.18,0,0,1,0-.23,13.16,13.16,0,0,1,4.42-2.7c4.1-1.55,9.37-1.53,15.26.08a.17.17,0,0,1,.13.15.2.2,0,0,1-.09.16M547,431.25a24,24,0,0,1-7.83,3.82,1.3,1.3,0,0,0-.07,2.47,24.25,24.25,0,0,1,6.19,3.64.17.17,0,0,1,.05.18.18.18,0,0,1-.14.11c-1.13.11-2.28.16-3.41.16-3.91,0-9.47-.68-13.73-3.93a.16.16,0,0,1,0-.23A13,13,0,0,1,531.8,434c3.73-2.37,9-3.41,15.13-3a.18.18,0,0,1,.15.12.17.17,0,0,1-.06.18m-17.55.28a18.93,18.93,0,0,1-7.08,5.42,1.31,1.31,0,0,0,.34,2.45,29.35,29.35,0,0,1,6.84,2.31.15.15,0,0,1,.08.16.15.15,0,0,1-.11.14,32.48,32.48,0,0,1-4.54,1.15,26.81,26.81,0,0,1-4.74.44,19.31,19.31,0,0,1-8.21-1.69.18.18,0,0,1-.09-.22,12.9,12.9,0,0,1,2.9-4.24c3.18-3.16,8.18-5.3,14.45-6.19a.15.15,0,0,1,.16.08.17.17,0,0,1,0,.19M513,434.43h0a22.38,22.38,0,0,1-6.2,7.93,1.33,1.33,0,0,0-.37,1.46,1.31,1.31,0,0,0,1.22.84h0a28.41,28.41,0,0,1,3.5.25,22.64,22.64,0,0,1,3.68.78.15.15,0,0,1,.12.14.15.15,0,0,1-.09.16,35,35,0,0,1-4.36,1.86,25.31,25.31,0,0,1-8.28,1.5,17.82,17.82,0,0,1-4.88-.65.19.19,0,0,1-.12-.2c.59-2.9,3.28-10.11,15.55-14.29a.18.18,0,0,1,.18.05.15.15,0,0,1,0,.17m65.52,21.9a86,86,0,0,1,9.84,7.42H491.61a84.15,84.15,0,0,1,9.83-7.42ZM592.92,468a100,100,0,0,1,6.73,7.41H552.47a22.2,22.2,0,0,0-14-4.2,26,26,0,0,0-13.11,4.2h-45a100,100,0,0,1,6.73-7.41ZM524.5,522.8c-4-.34-7.35.73-11.51,2.55a0,0,0,0,1-.06,0,.07.07,0,0,1,0-.06q.08-.54.18-1.08a57,57,0,0,1,9.72-22.94,37.32,37.32,0,0,1,5.74-6.27c.34-.25.68-.52,1-.81a2.32,2.32,0,0,0,.32-3.17,2.29,2.29,0,0,0-3.13-.48c-.07.05-.47.33-1.09.85-1.74,1.23-3.43,1.58-4.52,1a2.85,2.85,0,0,1-1-3.12c.41-2.45,3.13-5.68,4.14-6.71l.12-.13c5.43-6.45,14.14-6.6,14.22-6.6a17.52,17.52,0,0,1,6.37.89,18.34,18.34,0,0,1,10.7,9.51,102.52,102.52,0,0,1,8,20.81.07.07,0,0,1,0,.07.06.06,0,0,1-.07,0,32.42,32.42,0,0,1-9.1-5,2.31,2.31,0,0,0-2.93,3.56,35.3,35.3,0,0,0,13.32,6.63.06.06,0,0,1,.05,0c.55,2.57,1,5.27,1.54,8.5a.11.11,0,0,1,0,.07h-.07a33.78,33.78,0,0,0-7.53-2.66,41.64,41.64,0,0,1-4.08-1.24,42.58,42.58,0,0,1-9.15-5.31,2.31,2.31,0,0,0-2.86,3.62,46.19,46.19,0,0,0,10.3,6,38.94,38.94,0,0,0,4.62,1.42c6.24,1.66,9.23,3,9.34,6.32v0a2.67,2.67,0,0,1-.86,1.42c-1.82,2-5.52,2.4-7.42,2.4l-6.62,0a25,25,0,0,1-12.39-3.63c-6.2-4-10.87-6-15.13-6.35m12.09,9.93a.08.08,0,0,1-.07,0H518c-1.91,0-3.24-.48-4.06-1.48a3.84,3.84,0,0,1-.56-.95.07.07,0,0,1,0-.1c8.38-3.84,12.28-4.56,23.2,2.4a.08.08,0,0,1,0,.08m6.21,16.64h85.14c.22,2.66.39,5.32.47,8H542.8Zm0-4.23v-7.45h83.74q.6,3.7,1,7.45Zm26.69-11.66a8.73,8.73,0,0,0,1.87-3.29,3.31,3.31,0,0,0,.12-.42,11.54,11.54,0,0,0,.3-3.71h52.44c.6,2.46,1.11,4.93,1.58,7.42Zm1.71-11.62c-.36-2.36-.75-4.83-1.23-7.41h50.9c.2.61.41,1.24.61,1.86.59,1.84,1.13,3.69,1.64,5.55Zm-2.09-11.63c-.53-2.37-1.15-4.84-1.9-7.41h49.17c1.06,2.42,2.07,4.89,3,7.41Zm-3.22-11.62q-1.21-3.58-2.84-7.41h47.48c1.37,2.41,2.68,4.88,3.9,7.41ZM561.17,487c-.46-1-.94-1.94-1.44-2.92a27.31,27.31,0,0,0-2.88-4.49h46.09q2.65,3.59,5.07,7.41Zm-40.52-7.41a23,23,0,0,0-4.73,7.41H472q2.42-3.83,5.07-7.41Zm-5.14,11.62a6.87,6.87,0,0,0,3.36,5.16,7,7,0,0,0,1.31.58.07.07,0,0,1,.05,0,.1.1,0,0,1,0,.07c-.38.48-.78,1-1.19,1.56H465.56c1.23-2.53,2.54-5,3.91-7.41Zm.73,11.62a56.74,56.74,0,0,0-3.72,7.41h-51.9c.93-2.52,1.94-5,3-7.41Zm-5.32,11.63a68.66,68.66,0,0,0-2,7.41h-52c.51-1.86,1.05-3.71,1.64-5.55.2-.62.41-1.25.61-1.86Zm-2.71,11.61a15.93,15.93,0,0,0,.08,3,3,3,0,0,0,.06.43,10,10,0,0,0,1.47,4H454.2c.47-2.49,1-5,1.58-7.42Zm29,11.63v7.45H452.46c.27-2.5.61-5,1-7.45Zm0,11.68v8h-85.6c.08-2.68.25-5.34.47-8Zm0,12.34v17.18a.08.08,0,0,1,0,.05l0,0h-.53c-4.76,0-8.55,2-13.05,5.18-6.79,4.56-29.64,9.08-67.9,13.46a.07.07,0,0,1-.08-.05,153.79,153.79,0,0,1-4.05-35.28c0-.18,0-.37,0-.55Zm27.56,38c-4.16-2.72-11.91-7.78-19.37-5.76a13.21,13.21,0,0,0-4.23,2.17c-.73.49-1.48,1-2.32,1.47a18.35,18.35,0,0,1-7.39,2.24c-2.26.13-3.68.14-4.32-.76-.52-.73-.55-1.07-.42-1.47l0,0a18.45,18.45,0,0,1,3.36-1.9,28.09,28.09,0,0,0,7-4.46c.93-.77,2-1.63,3.64-2.8,2.35-1.66,4.88-1.71,8.7-1.79l1.84,0,1.41-.05c4.1-.18,7.76,1.14,13.28,3.13,1.61.59,3.43,1.24,5.42,1.93h0c.07,0,7.45,2.38,17.79,4.85,8.8,2.1,21.86,4.78,34.05,5.57l0,0a.07.07,0,0,1,0,.06c-.57,2.08-1.18,4.13-1.81,6.11a132.33,132.33,0,0,1-9.57,22.63.08.08,0,0,1-.06,0h0c-6-2.44-20.83-8.91-30.61-16.19a23.08,23.08,0,0,1-4-3.59l0,0-.06-.07,0,0c-.22-.25-.32-.4-.34-.41a56.4,56.4,0,0,0-12-10.84m7.84-11.89c-2-.67-3.74-1.32-5.32-1.89-5.75-2.08-9.92-3.6-14.81-3.37l-.85,0h0a31.55,31.55,0,0,0-8.72-3,.07.07,0,0,1-.06-.07V561.71h85.68c0,.18,0,.37,0,.55A153,153,0,0,1,624.32,598a.07.07,0,0,1-.07.06h0c-23.23-1.34-50.51-9.92-51.66-10.28M635,505.25a.21.21,0,0,1,.17-.08.18.18,0,0,1,.13.12,32.19,32.19,0,0,1,1.6,8.69,22,22,0,0,1-1,7.72A16.72,16.72,0,0,1,633,527a.16.16,0,0,1-.13.06l-.09,0a20.6,20.6,0,0,1-8-10.3,31.94,31.94,0,0,1-1.36-4.49.16.16,0,0,1,.07-.18.15.15,0,0,1,.17,0,28.39,28.39,0,0,1,5.63,4.61,1.3,1.3,0,0,0,2.25-.8,22.09,22.09,0,0,1,3.4-10.56m-9.59-3.43a1.29,1.29,0,0,0,.74-1.22,21.94,21.94,0,0,1,2.29-10.85.15.15,0,0,1,.16-.09.17.17,0,0,1,.14.1,33,33,0,0,1,2.5,8.49A21.84,21.84,0,0,1,631,506a16.56,16.56,0,0,1-2.28,5.51.17.17,0,0,1-.14.08l-.07,0c-3.68-1.81-6.7-5-9-9.44a32.51,32.51,0,0,1-1.82-4.32.17.17,0,0,1,0-.18.14.14,0,0,1,.17,0,29.48,29.48,0,0,1,6.08,4,1.3,1.3,0,0,0,1.42.21h0m-6.85-14.2a1.34,1.34,0,0,0,.63-1.33,21.82,21.82,0,0,1,1-11,.17.17,0,0,1,.14-.12h0a.2.2,0,0,1,.16.09,32.92,32.92,0,0,1,3.48,8.15,21.71,21.71,0,0,1,.67,7.76,16.35,16.35,0,0,1-1.62,5.72.14.14,0,0,1-.14.09h0a20.23,20.23,0,0,1-10.32-8.43,27,27,0,0,1-2.26-4.25.18.18,0,0,1,0-.17.16.16,0,0,1,.17-.05,22.17,22.17,0,0,1,6.64,3.45,1.32,1.32,0,0,0,1.47.12m-10.19-13.2a1.3,1.3,0,0,0,2-1.45,24.46,24.46,0,0,1-.7-10.92.19.19,0,0,1,.12-.14.18.18,0,0,1,.17.06,32.75,32.75,0,0,1,4.65,7.36,21.67,21.67,0,0,1,1.91,7.54,16.23,16.23,0,0,1-.67,5.91.17.17,0,0,1-.15.11h0a20.78,20.78,0,0,1-11.27-6.66,31.29,31.29,0,0,1-3.15-4,.19.19,0,0,1,0-.18.14.14,0,0,1,.15-.08,15.65,15.65,0,0,1,7,2.41m-10.26-11.77a1.32,1.32,0,0,0,1.44-.34,1.34,1.34,0,0,0,.19-1.48,21.91,21.91,0,0,1-2.54-10.75.18.18,0,0,1,.1-.15.18.18,0,0,1,.18,0,32.07,32.07,0,0,1,5.71,6.53,22.94,22.94,0,0,1,3.11,7.18,17.77,17.77,0,0,1,.38,6.06.17.17,0,0,1-.16.15h-.23c-4.59,0-8.81-2.53-11.55-4.64a35.47,35.47,0,0,1-4-3.57.18.18,0,0,1,0-.17.16.16,0,0,1,.15-.11,20.92,20.92,0,0,1,7.21,1.24m-4-10.67a18.45,18.45,0,0,1,1.19,6.74.18.18,0,0,1-.16.16c-.23,0-.48,0-.73,0-5.67,0-12.26-3.85-15.69-6.14a.17.17,0,0,1-.08-.17.17.17,0,0,1,.14-.13,19,19,0,0,1,7,.1,1.31,1.31,0,0,0,1.4-.56,1.33,1.33,0,0,0-.09-1.52,28.39,28.39,0,0,1-4.36-8.25.14.14,0,0,1,0-.17.17.17,0,0,1,.17,0c5.55,1.86,9.3,5.21,11.15,10m-105-15.72a.08.08,0,0,1-.08-.05.06.06,0,0,1,0-.08,26.74,26.74,0,0,1,3.56-1.54,78.06,78.06,0,0,1,8.09-2.3,21.77,21.77,0,0,0,6.19-2.44.49.49,0,0,0,.21-.51.48.48,0,0,0-.4-.37l-18.85-2.75a.07.07,0,0,1-.06-.07s0-.07.05-.07l18.86-2.78a.48.48,0,0,0,.4-.48.47.47,0,0,0-.4-.47,31.71,31.71,0,0,1-7.29-2.23c-1.08-.49-2-1-2.87-1.47a21.1,21.1,0,0,0-7.42-2.76.07.07,0,0,1-.06-.07.07.07,0,0,1,.06-.07,27.78,27.78,0,0,1,3.87-.05,74.72,74.72,0,0,1,8.36,1,21.42,21.42,0,0,0,6.65.12.51.51,0,0,0,.39-.38.49.49,0,0,0-.23-.5l-16.38-9.77a.08.08,0,0,1,0-.09.08.08,0,0,1,.09,0l18.48,4.65a.47.47,0,0,0,.36-.87,31.68,31.68,0,0,1-5.88-4.86c-.81-.87-1.46-1.68-2.09-2.46a20.85,20.85,0,0,0-5.8-5.41.08.08,0,0,1,0-.09.09.09,0,0,1,.09,0,27.78,27.78,0,0,1,3.59,1.45,76,76,0,0,1,7.34,4.13,21.11,21.11,0,0,0,6.09,2.67.48.48,0,0,0,.49-.75l-11.42-15.29a.08.08,0,0,1,0-.1.06.06,0,0,1,.09,0l15.32,11.38a.47.47,0,0,0,.62,0,.5.5,0,0,0,0-.63A31.2,31.2,0,0,1,515.6,393c-.42-1.11-.71-2.11-1-3.08a21.16,21.16,0,0,0-3.3-7.23.09.09,0,0,1,0-.09.06.06,0,0,1,.09,0,27.38,27.38,0,0,1,2.77,2.72,76.49,76.49,0,0,1,5.2,6.65A21.57,21.57,0,0,0,524,396.8a.47.47,0,0,0,.73-.51L520,377.79a.07.07,0,0,1,.13-.05L530,394.13a.47.47,0,0,0,.59.19.46.46,0,0,0,.28-.55,31.66,31.66,0,0,1-.72-7.62c0-1.18.15-2.21.25-3.22a20.91,20.91,0,0,0-.28-7.94s0-.08,0-.09a.06.06,0,0,1,.08,0,27.33,27.33,0,0,1,1.52,3.57,75.71,75.71,0,0,1,2.27,8.14,21.82,21.82,0,0,0,2.41,6.22.48.48,0,0,0,.51.21.47.47,0,0,0,.37-.4l2.64-18.83a.08.08,0,0,1,.08-.06.07.07,0,0,1,.07.06l2.74,18.83a.47.47,0,0,0,.47.41.47.47,0,0,0,.47-.4,31.09,31.09,0,0,1,2.22-7.32c.47-1.08,1-2,1.45-2.89a21.28,21.28,0,0,0,2.75-7.45.07.07,0,0,1,.07-.07.07.07,0,0,1,.06.07,26.55,26.55,0,0,1,.05,3.89,71.82,71.82,0,0,1-1,8.39,21.64,21.64,0,0,0-.11,6.67.47.47,0,0,0,.38.39.48.48,0,0,0,.5-.22l9.74-16.42a.06.06,0,0,1,.08,0s0,.05,0,.09l-4.64,18.52a.48.48,0,0,0,.28.56.47.47,0,0,0,.59-.19,31.55,31.55,0,0,1,4.84-5.91c.86-.81,1.67-1.47,2.45-2.1a21.25,21.25,0,0,0,5.38-5.83.06.06,0,0,1,.09,0,.09.09,0,0,1,0,.08,29.5,29.5,0,0,1-1.44,3.61,77.32,77.32,0,0,1-4.11,7.38,21.35,21.35,0,0,0-2.66,6.12.49.49,0,0,0,.21.51.5.5,0,0,0,.54,0l15.24-11.43a.07.07,0,0,1,.09,0,.12.12,0,0,1,0,.1L565.56,404.5a.48.48,0,0,0,.05.62.47.47,0,0,0,.62.05,31.16,31.16,0,0,1,6.73-3.6c1.1-.41,2.09-.71,3.06-1a21.25,21.25,0,0,0,7.19-3.31.08.08,0,0,1,.1,0,.09.09,0,0,1,0,.1,28.34,28.34,0,0,1-2.7,2.78,78.85,78.85,0,0,1-6.62,5.23A21.86,21.86,0,0,0,569.2,410a.5.5,0,0,0,0,.55.46.46,0,0,0,.51.19L588.14,406a.07.07,0,0,1,.08,0,.08.08,0,0,1,0,.09L571.87,416a.48.48,0,0,0,.36.88,30.5,30.5,0,0,1,7.58-.73c1.19,0,2.22.14,3.21.25a21,21,0,0,0,7.91-.29s.07,0,.08,0,0,.07,0,.08a26.69,26.69,0,0,1-3.56,1.53,73.82,73.82,0,0,1-8.1,2.28,21.45,21.45,0,0,0-6.19,2.43.48.48,0,0,0-.21.5.47.47,0,0,0,.4.38l18.81,2.71a.07.07,0,0,1,.06.07.07.07,0,0,1-.06.07L573.3,429a.48.48,0,0,0-.41.47.47.47,0,0,0,.41.47,31.64,31.64,0,0,1,7.28,2.25c1.08.49,2,1,2.87,1.47a20.82,20.82,0,0,0,7.42,2.78.08.08,0,0,1,0,.07.07.07,0,0,1-.06.07q-1.11.09-2.22.09c-.55,0-1.1,0-1.65-.05a74.58,74.58,0,0,1-8.35-1l-.47-.08h0a22.26,22.26,0,0,0-9-2H569l-.05,0a.08.08,0,0,1,0-.05,1.42,1.42,0,0,0,0-.36,1.4,1.4,0,0,0-.91-1,41,41,0,0,0-9.9-2.22l-.46,0h-.06l-.23,0-.5,0h-1.17a24.76,24.76,0,0,0-4.1.33.08.08,0,0,1-.07,0,.14.14,0,0,1,0-.06.43.43,0,0,1,0-.05,1.61,1.61,0,0,0-.1-.58.22.22,0,0,0,0-.11,1.39,1.39,0,0,0-1.06-.77l-.9-.11-.19,0h-.1l-.59-.06-.34,0-.53,0a36.24,36.24,0,0,0-9.7.45c-.8.16-1.6.36-2.35.58l-.15.05-.39.12-.15.05-.51.17-1.09.43s-.06,0-.07,0,0,0,0-.07v0h0a.83.83,0,0,0,0-.13v0a1.39,1.39,0,0,0-.36-1.15h0l-.1-.1,0,0a1.42,1.42,0,0,0-1-.33,38.34,38.34,0,0,0-12,2.8,24.24,24.24,0,0,0-3.2,1.69.08.08,0,0,1-.08,0,.06.06,0,0,1,0-.07,2.76,2.76,0,0,0,0-.4h0v0a1.37,1.37,0,0,0-.51-1.17h0l-.12-.08,0,0-.11-.06,0,0a1.48,1.48,0,0,0-1-.09,37.78,37.78,0,0,0-11.45,5.13l-.19.13-.08.07,0,0c-.92,0-1.82.07-2.67,0s-3-.23-3.21-.25a21,21,0,0,0-7.91.31M496.3,440h0a.17.17,0,0,1,.18,0,.18.18,0,0,1,.09.16A21.89,21.89,0,0,1,493,450.61a1.32,1.32,0,0,0,0,1.45,1.28,1.28,0,0,0,1.33.54,29.61,29.61,0,0,1,7.07-.42.15.15,0,0,1,.15.11.17.17,0,0,1-.06.18c-3,2.41-9,6.45-15.47,6.45h-.69a.17.17,0,0,1-.16-.16c-.17-3.1.58-11.13,11.12-18.76M474,463.75a22.15,22.15,0,0,1,3.1-7.15,32.73,32.73,0,0,1,5.89-6.66.17.17,0,0,1,.18,0,.16.16,0,0,1,.1.15,21.92,21.92,0,0,1-2.55,10.77,1.3,1.3,0,0,0,1.57,1.84,26.78,26.78,0,0,1,6.88-1.26.2.2,0,0,1,.16.11.19.19,0,0,1,0,.18,42.54,42.54,0,0,1-4.06,3.57c-2.76,2.13-6.89,4.68-10.87,4.68h-.47a.15.15,0,0,1-.15-.14,16.11,16.11,0,0,1,.25-6.05m-3.59-1.92h0a.15.15,0,0,1,.17-.06.16.16,0,0,1,.12.13,21.71,21.71,0,0,1-.8,11,1.31,1.31,0,0,0,.46,1.45,1.28,1.28,0,0,0,1.51,0,15.61,15.61,0,0,1,6.88-2.4.18.18,0,0,1,.15.08.17.17,0,0,1,0,.18c-2.47,3.49-7.63,9.51-14.29,10.63h0a.17.17,0,0,1-.16-.12c-1-3-2.32-10.92,6-21m-14.29,21.51a32.43,32.43,0,0,1,3.81-8,.18.18,0,0,1,.17-.07.15.15,0,0,1,.13.11,21.8,21.8,0,0,1,.54,11.08,1.3,1.3,0,0,0,2.19,1.17,13.33,13.33,0,0,1,6.71-3.29.17.17,0,0,1,.16.07.2.2,0,0,1,0,.17,31.93,31.93,0,0,1-2.7,4.51c-2.94,4.05-6.45,6.7-10.44,7.86h0a.18.18,0,0,1-.17-.09,17,17,0,0,1-1.38-5.82,21.79,21.79,0,0,1,1-7.71m-7.72,14.85a32.84,32.84,0,0,1,2.58-8.48.19.19,0,0,1,.15-.09.16.16,0,0,1,.15.09,21.79,21.79,0,0,1,2.18,10.88,1.3,1.3,0,0,0,.74,1.23,1.26,1.26,0,0,0,1.41-.19,29.26,29.26,0,0,1,6.44-4.09.17.17,0,0,1,.17,0,.18.18,0,0,1,.06.17,22,22,0,0,1-1.49,4,21.06,21.06,0,0,1-9.8,9.75l-.07,0a.19.19,0,0,1-.14-.07,16.71,16.71,0,0,1-2.21-5.51,21.72,21.72,0,0,1-.17-7.78m-4.17,6.94a.2.2,0,0,1,.13-.12.17.17,0,0,1,.17.08,21.83,21.83,0,0,1,3.53,10.51,1.3,1.3,0,0,0,.9,1.14,1.29,1.29,0,0,0,1.39-.41,24.79,24.79,0,0,1,5.87-4.88.17.17,0,0,1,.17,0,.16.16,0,0,1,.07.16,20.84,20.84,0,0,1-.94,4.32A19.76,19.76,0,0,1,447,526.8a.12.12,0,0,1-.09,0,.16.16,0,0,1-.12-.06,16.63,16.63,0,0,1-2.92-5.21,21.86,21.86,0,0,1-1.14-7.7,32.63,32.63,0,0,1,1.49-8.73m-4.73,16.13h0a.16.16,0,0,1,.13-.13.15.15,0,0,1,.16,0,22,22,0,0,1,4.81,10,1.3,1.3,0,0,0,2.34.48,28.49,28.49,0,0,1,5.08-5.44.22.22,0,0,1,.18,0,.18.18,0,0,1,.09.16,25.24,25.24,0,0,1-.59,4.31,21.9,21.9,0,0,1-6.79,11.71.17.17,0,0,1-.22,0,16.62,16.62,0,0,1-3.5-4.79,21.9,21.9,0,0,1-2.09-7.5,32.65,32.65,0,0,1,.4-8.83m-2.42,16.17a.16.16,0,0,1,.12-.13.16.16,0,0,1,.17,0,22,22,0,0,1,5.27,9.76,1.32,1.32,0,0,0,1.13,1,1.31,1.31,0,0,0,1.3-.74,20.63,20.63,0,0,1,4.28-5.66.17.17,0,0,1,.19,0,.17.17,0,0,1,.09.15,30,30,0,0,1-.39,4.87c-.82,5-2.75,8.86-5.73,11.64a.21.21,0,0,1-.12,0,.13.13,0,0,1-.1,0,16.54,16.54,0,0,1-3.76-4.65,22,22,0,0,1-2.43-7.39,32.62,32.62,0,0,1,0-8.84m-1.34,17h0a.16.16,0,0,1,.11-.14.15.15,0,0,1,.17,0c.35.32.7.67,1,1a22.49,22.49,0,0,1,4.85,8.4,1.29,1.29,0,0,0,1.24.9h.09a1.29,1.29,0,0,0,1.18-1.09,12.19,12.19,0,0,1,3.53-6.15.15.15,0,0,1,.16,0,.16.16,0,0,1,.11.13,25.37,25.37,0,0,1,0,8,16.51,16.51,0,0,1-4.73,9.36.18.18,0,0,1-.21,0c-2.54-1.83-8.36-7.5-7.55-20.49m-.62,16.42a.19.19,0,0,1,.18,0c.38.28.76.6,1.13.92a22.54,22.54,0,0,1,5.71,7.85,1.3,1.3,0,0,0,1.18.78l0,.06v-.06a1.3,1.3,0,0,0,1.18-.81,28.48,28.48,0,0,1,3.92-6.52.18.18,0,0,1,.17-.06.18.18,0,0,1,.12.13,21.32,21.32,0,0,1-3.89,17.35.17.17,0,0,1-.13.07.14.14,0,0,1-.09,0c-2.7-1.57-9-6.62-9.59-19.54a.2.2,0,0,1,.09-.16m.82,17.24h0a.16.16,0,0,1,.06-.17.17.17,0,0,1,.17,0,22,22,0,0,1,8.26,7.47,1.31,1.31,0,0,0,1.32.55,1.33,1.33,0,0,0,1-1h0a27.85,27.85,0,0,1,2.8-7.21.15.15,0,0,1,.14-.08h0a.19.19,0,0,1,.15.09,20.17,20.17,0,0,1,1.48,4.4,18.56,18.56,0,0,1-2.29,13.54.18.18,0,0,1-.15.08h0a17,17,0,0,1-5.15-3.15,22,22,0,0,1-4.79-6.17,32.16,32.16,0,0,1-3-8.31M439.8,604h0a.16.16,0,0,1,.05-.17.14.14,0,0,1,.17,0c.44.18.88.39,1.31.61a22.93,22.93,0,0,1,7.49,6.22,1.28,1.28,0,0,0,2.29-.61,29.37,29.37,0,0,1,2.12-7.13.18.18,0,0,1,.16-.1.16.16,0,0,1,.14.11c1.61,3.54,3.84,10.54.65,17.63a.19.19,0,0,1-.16.11h0c-3-.87-10.42-4.2-14.18-16.63m9.56,23.6a32.84,32.84,0,0,1-4.51-7.6.17.17,0,0,1,0-.17.18.18,0,0,1,.17-.06c.45.14.91.29,1.37.46a22.75,22.75,0,0,1,8.15,5.33,1.29,1.29,0,0,0,2.22-.88,28.74,28.74,0,0,1,1.25-7.22.15.15,0,0,1,.14-.11.17.17,0,0,1,.16.08,28,28,0,0,1,2,4.24,20.2,20.2,0,0,1,.72,13.12.18.18,0,0,1-.16.11h0a16.78,16.78,0,0,1-5.62-2.13,22.37,22.37,0,0,1-5.87-5.17m2.32,7.55a.17.17,0,0,1,0-.18.14.14,0,0,1,.16-.07A22.26,22.26,0,0,1,462,639.55a1.29,1.29,0,0,0,1.43.12,1.31,1.31,0,0,0,.66-1.29,25.43,25.43,0,0,1,.36-7.15.16.16,0,0,1,.13-.12.14.14,0,0,1,.17.07,32.29,32.29,0,0,1,2.41,4.1c1.52,3.09,3.16,7.79,2.33,12.68a.18.18,0,0,1-.16.14,16.64,16.64,0,0,1-5.83-1.48,21.67,21.67,0,0,1-6.44-4.45,32.8,32.8,0,0,1-5.37-7m14.56,20.66a32.75,32.75,0,0,1-6.08-6.44.17.17,0,0,1,0-.18.15.15,0,0,1,.16-.08,22.28,22.28,0,0,1,10.55,3.58,1.3,1.3,0,0,0,2-1.42,23.09,23.09,0,0,1-.45-7.09.19.19,0,0,1,.12-.14.16.16,0,0,1,.18.06c2.61,3.16,6.94,9.48,6.54,16.17a.18.18,0,0,1-.16.16h-.65a17.3,17.3,0,0,1-5.29-.87,22.16,22.16,0,0,1-6.87-3.76m23.58,15.63a12.83,12.83,0,0,1-2.15.17,16.72,16.72,0,0,1-3.27-.33c-4.6-.93-9.32-3.65-14-8.09a.18.18,0,0,1-.05-.17.19.19,0,0,1,.14-.12,22.44,22.44,0,0,1,11.06,1.49,1.26,1.26,0,0,0,1.4-.3,1.3,1.3,0,0,0,.28-1.41,26.29,26.29,0,0,1-1.69-7,.18.18,0,0,1,.09-.16.17.17,0,0,1,.18,0c3.2,2.7,8.53,8.32,8.19,15.75a.17.17,0,0,1-.14.15m31.26,13.69a86.53,86.53,0,0,1-10.85-3.77,93.32,93.32,0,0,1-17.56-9.85.07.07,0,0,1,0-.06,17.88,17.88,0,0,0-.94-6.6.08.08,0,0,1,0-.09.06.06,0,0,1,.08,0A84.17,84.17,0,0,0,504,673.45a75.82,75.82,0,0,0,15,6.4h0l1.26.38a8.14,8.14,0,0,0,1.32,5Zm8.56-4a6.9,6.9,0,0,0,.37,5.55.23.23,0,0,1,0,.23.2.2,0,0,1-.16.07h-.07a10.9,10.9,0,0,1-5-3.08,4.79,4.79,0,0,1-1.07-3.78,3.07,3.07,0,0,1,1.41-2.4c1.43-.94,4-1.27,7.42-.92a.21.21,0,0,1,.19.15.23.23,0,0,1-.08.23,8.47,8.47,0,0,0-3,4M540,697.59a4.49,4.49,0,1,1,4.46-4.49,4.48,4.48,0,0,1-4.46,4.49m5.49-10.41a.21.21,0,0,1-.3,0,7.8,7.8,0,0,0-10.43,0,.22.22,0,0,1-.29,0c-1.16-1.24-2.38-3.1-1.69-5,1.47-4,7-4,7.19-4a11.5,11.5,0,0,1,3.12.52,5.93,5.93,0,0,1,4.06,3.52c.67,1.82-.53,3.67-1.66,4.91m9.74-3.33a11,11,0,0,1-5,3.08h-.08a.23.23,0,0,1-.15-.07.2.2,0,0,1,0-.23,6.9,6.9,0,0,0,.36-5.55,8.47,8.47,0,0,0-3-4,.23.23,0,0,1-.08-.23.21.21,0,0,1,.19-.15c2.38-.24,5.61-.27,7.42.92a3,3,0,0,1,1.41,2.4,4.83,4.83,0,0,1-1.06,3.78m32.17-12.41s0,0,0,.06a76.92,76.92,0,0,1-13,8,82.75,82.75,0,0,1-15.1,5.68l-1,.23a8.13,8.13,0,0,0,1.41-5.14l1.5-.46h0A76.17,76.17,0,0,0,576,673.45a86.45,86.45,0,0,0,12.34-8.79.1.1,0,0,1,.09,0,.07.07,0,0,1,0,.08,17.88,17.88,0,0,0-1,6.71m-13.15-.68a73.9,73.9,0,0,1-14.87,6.32l-.47.14a6.34,6.34,0,0,0-2.18-2.4c-4.82-3.15-14-.86-16.71-.09h-.11c-2.7-.77-11.89-3.07-16.71.09a6.4,6.4,0,0,0-2.18,2.39l-.79-.24a73,73,0,0,1-14.54-6.21,91.68,91.68,0,0,1-28.14-25.12,117.84,117.84,0,0,1-7.89-11.93.06.06,0,0,1,0-.06.1.1,0,0,1,0,0c5.6-2.49,19.95-9,32.35-15.36a0,0,0,0,1,.06,0,.07.07,0,0,1,0,0,5.94,5.94,0,0,0,.44,1.57c1,2.4,3.7,3.28,5.75,3.6a17.15,17.15,0,0,0,2,.18s.05,0,.07.05a7.47,7.47,0,0,0,5,4.19,13.92,13.92,0,0,0,2.69.57.08.08,0,0,1,0,0,5.82,5.82,0,0,0,2.11,2.66c2.4,1.63,5.79,1.39,7.61,1.09a.07.07,0,0,1,.07,0,6.77,6.77,0,0,0,4,2.46,9.56,9.56,0,0,0,5.17-.57,0,0,0,0,1,.06,0,.06.06,0,0,1,0,.06v21.82a2.81,2.81,0,1,0,5.61,0V633.27a.05.05,0,0,1,0,0,0,0,0,0,1,0,0,12,12,0,0,0,6.83-.55,11.6,11.6,0,0,0,2.94-1.71,0,0,0,0,1,.05,0,7.82,7.82,0,0,0,7.21-2.2,10,10,0,0,0,1.51-2,.07.07,0,0,1,.06,0,5.72,5.72,0,0,0,.58,0,8.66,8.66,0,0,0,6.85-2.92,8.79,8.79,0,0,0,1.42-2.24.07.07,0,0,1,.06,0,8.31,8.31,0,0,0,5.7-2.23,7.29,7.29,0,0,0,1.56-2.19.05.05,0,0,1,.05,0,.07.07,0,0,1,.06,0c10,7.76,25.76,14.69,32.08,17.31,0,0,0,0,0,0a.06.06,0,0,1,0,.06,117.12,117.12,0,0,1-7.46,11.2,91.68,91.68,0,0,1-28.14,25.12m35.44-7.56h0c-5.86,5.52-10.87,7.43-14,8.08a16.9,16.9,0,0,1-3.27.34,12.33,12.33,0,0,1-2.15-.18.17.17,0,0,1-.14-.15c-.19-4.21,1.41-8.32,4.75-12.22a28.52,28.52,0,0,1,3.51-3.43.15.15,0,0,1,.19,0,.16.16,0,0,1,.08.16,28.74,28.74,0,0,1-1.76,6.9,1.3,1.3,0,0,0,.28,1.41,1.26,1.26,0,0,0,1.4.3,22.57,22.57,0,0,1,11-1.48.17.17,0,0,1,.14.12.15.15,0,0,1,0,.17m10.35-13.82a33,33,0,0,1-6.07,6.43,22.2,22.2,0,0,1-6.88,3.76,17.29,17.29,0,0,1-5.28.87h-.66a.16.16,0,0,1-.15-.16c-.29-4,.93-8.25,3.62-12.46A30.27,30.27,0,0,1,607.5,644a.17.17,0,0,1,.18,0,.17.17,0,0,1,.11.15,28.39,28.39,0,0,1-.39,7.21,1.3,1.3,0,0,0,2,1.36,22.45,22.45,0,0,1,10.55-3.57.18.18,0,0,1,.16.08.17.17,0,0,1,0,.18m8.48-14.22a33,33,0,0,1-5.36,7,21.93,21.93,0,0,1-6.44,4.45,16.86,16.86,0,0,1-5.83,1.48.17.17,0,0,1-.17-.14c-.7-4,.07-8.3,2.3-12.78a32,32,0,0,1,2.43-4.06.16.16,0,0,1,.17-.06.15.15,0,0,1,.13.13,28.5,28.5,0,0,1,.37,7.21,1.31,1.31,0,0,0,.68,1.28,1.29,1.29,0,0,0,1.42-.13,22.41,22.41,0,0,1,10.13-4.64.14.14,0,0,1,.16.07.17.17,0,0,1,0,.18m6.82-15.59h0a32.65,32.65,0,0,1-4.6,7.82,22.17,22.17,0,0,1-5.87,5.16,16.73,16.73,0,0,1-5.6,2.13h0a.18.18,0,0,1-.16-.12,20.84,20.84,0,0,1,.76-13.15,29.19,29.19,0,0,1,1.89-4.11.16.16,0,0,1,.16-.09.17.17,0,0,1,.14.12,31.8,31.8,0,0,1,1.28,7.15,1.31,1.31,0,0,0,.85,1.17,1.28,1.28,0,0,0,1.4-.34h0a19.86,19.86,0,0,1,8.11-5.54,14.19,14.19,0,0,1,1.47-.42.17.17,0,0,1,.16,0,.18.18,0,0,1,0,.17m4.92-15.65h0a32.48,32.48,0,0,1-3.73,8,22.17,22.17,0,0,1-5.32,5.72,17.18,17.18,0,0,1-5.37,2.67h0a.16.16,0,0,1-.17-.1c-1.95-4.73-1.38-9.79-.56-13.21a31.48,31.48,0,0,1,1.47-4.6.15.15,0,0,1,.15-.11.17.17,0,0,1,.16.11,31.94,31.94,0,0,1,2,7.34,1.29,1.29,0,0,0,.93,1.09,1.3,1.3,0,0,0,1.36-.42,22.14,22.14,0,0,1,8.9-6.7.19.19,0,0,1,.18,0,.18.18,0,0,1,0,.17m.53-8.12a21.92,21.92,0,0,1-4.58,6.32,16.18,16.18,0,0,1-5,3.3.11.11,0,0,1-.07,0,.16.16,0,0,1-.14-.08,21.48,21.48,0,0,1-2.25-13.29,29.69,29.69,0,0,1,.93-4.67.16.16,0,0,1,.14-.11.16.16,0,0,1,.16.07,32.55,32.55,0,0,1,2.89,7.21,1.28,1.28,0,0,0,1.05,1,1.3,1.3,0,0,0,1.31-.59,22.12,22.12,0,0,1,8-7.73.17.17,0,0,1,.18,0,.16.16,0,0,1,.07.17,32.35,32.35,0,0,1-2.7,8.4" transform="translate(-303.52 -303.52)"/></svg>