<svg id="Capa_1" data-name="Capa 1" xmlns="http://www.w3.org/2000/svg" viewBox="0 0 424.26 509.37"><defs><style>.cls-1,.cls-2,.cls-7{fill:none;stroke-linecap:round;stroke-linejoin:round;}.cls-1,.cls-2{stroke:#263238;}.cls-2{stroke-dasharray:2.01 3.01;}.cls-3{fill:#fff;}.cls-4{fill:#2b2c4d;}.cls-5{fill:#263238;}.cls-6{fill:#f6f6f6;}.cls-7{stroke:#f2ba52;stroke-dasharray:2 3;}</style></defs><title>lanzapps_illus</title><path class="cls-1" d="M619.52,402.79l-3,1.91" transform="translate(-327.87 -285.31)"/><path class="cls-2" d="M607.46,410.47c-44.9,28.57-201.88,128.63-244,157.22-49.34,33.47-53.87,111,34,84.26,56.08-17.1,303.08-81.18,329.73-22.27,25.36,56.08-148.44,137.74-209.76,161.38" transform="translate(-327.87 -285.31)"/><path class="cls-1" d="M512.32,793,509,794.19" transform="translate(-327.87 -285.31)"/><polygon class="cls-3" points="416.88 0.5 196.41 58.1 259.07 92.19 416.88 0.5"/><polygon class="cls-1" points="416.88 0.5 196.41 58.1 259.07 92.19 416.88 0.5"/><polygon class="cls-3" points="259.07 92.19 265.22 137.99 416.88 0.5 259.07 92.19"/><polygon class="cls-1" points="259.07 92.19 265.22 137.99 416.88 0.5 259.07 92.19"/><polygon class="cls-3" points="265.22 137.99 286.15 97.15 416.88 0.5 265.22 137.99"/><polygon class="cls-1" points="265.22 137.99 286.15 97.15 416.88 0.5 265.22 137.99"/><polygon class="cls-3" points="286.15 97.15 367.88 141.71 416.88 0.5 286.15 97.15"/><polygon class="cls-1" points="286.15 97.15 367.88 141.71 416.88 0.5 286.15 97.15"/><path class="cls-4" d="M612.5,623.13a48.45,48.45,0,0,0-48.45,48.45c0,26.76,48.45,77.32,48.45,77.32S661,698.34,661,671.58a48.46,48.46,0,0,0-48.46-48.45m0,65.78a20.43,20.43,0,1,1,20.43-20.42,20.42,20.42,0,0,1-20.43,20.42" transform="translate(-327.87 -285.31)"/><path class="cls-4" d="M406.2,362.46c-22.82,10.2-42.65,31.86-53.05,57.94-10.53,26.43-10.93,56.06-1.07,79.25a7.28,7.28,0,1,0,13.4-5.7c-8.39-19.73-8-45.21,1.2-68.15,9-22.65,26-41.36,45.46-50a7.28,7.28,0,0,0-5.94-13.3" transform="translate(-327.87 -285.31)"/><path class="cls-4" d="M418.42,388.74c-16.64,9-29.89,24.18-37.32,42.81s-8.28,39.07-2.24,57.12a7.28,7.28,0,1,0,13.81-4.62c-4.95-14.79-4.26-31.53,2-47.11s17.06-28,30.7-35.39a7.28,7.28,0,1,0-6.91-12.81" transform="translate(-327.87 -285.31)"/><path class="cls-4" d="M430.35,415.06a53,53,0,0,0-24.43,63.68,7.28,7.28,0,0,0,13.84-4.5,38.5,38.5,0,0,1,17.84-46.56,7.28,7.28,0,1,0-7.25-12.62" transform="translate(-327.87 -285.31)"/><path class="cls-4" d="M430.69,451.31a17.47,17.47,0,1,0,22.7-9.76,17.47,17.47,0,0,0-22.7,9.76" transform="translate(-327.87 -285.31)"/><path class="cls-5" d="M651.09,478.49H570.51a11.94,11.94,0,0,0-11.94,11.94v43.1a11.94,11.94,0,0,0,11.94,11.94H573c-2.5,5.56-7.32,14-15.06,19,0,0,16.34-1.14,33.38-19h59.75A11.94,11.94,0,0,0,663,533.53v-43.1a11.94,11.94,0,0,0-11.94-11.94" transform="translate(-327.87 -285.31)"/><path class="cls-1" d="M651.09,478.49H570.51a11.94,11.94,0,0,0-11.94,11.94v43.1a11.94,11.94,0,0,0,11.94,11.94H573c-2.5,5.56-7.32,14-15.06,19,0,0,16.34-1.14,33.38-19h59.75A11.94,11.94,0,0,0,663,533.53v-43.1A11.94,11.94,0,0,0,651.09,478.49Z" transform="translate(-327.87 -285.31)"/><path class="cls-3" d="M596.94,510.44a6.15,6.15,0,1,0-6.14,6.15,6.14,6.14,0,0,0,6.14-6.15" transform="translate(-327.87 -285.31)"/><path class="cls-3" d="M617.84,510.44a6.15,6.15,0,1,0-6.15,6.15,6.15,6.15,0,0,0,6.15-6.15" transform="translate(-327.87 -285.31)"/><path class="cls-3" d="M638.73,510.44a6.15,6.15,0,1,0-6.15,6.15,6.14,6.14,0,0,0,6.15-6.15" transform="translate(-327.87 -285.31)"/><path class="cls-4" d="M470.49,658a45,45,0,1,0-44.95,45,45,45,0,0,0,44.95-45" transform="translate(-327.87 -285.31)"/><polygon class="cls-6" points="77.39 344.72 125.89 372.73 77.39 400.72 77.39 344.72"/><path class="cls-7" d="M680.63,604.65S838,597.49,684.2,701.2" transform="translate(-327.87 -285.31)"/></svg>