<?xml version="1.0" encoding="iso-8859-1"?>
<!-- Generator: Adobe Illustrator 16.0.3, SVG Export Plug-In . SVG Version: 6.00 Build 0)  -->
<!DOCTYPE svg PUBLIC "-//W3C//DTD SVG 1.1//EN" "http://www.w3.org/Graphics/SVG/1.1/DTD/svg11.dtd">
<svg version="1.1" id="Capa_1" xmlns="http://www.w3.org/2000/svg" xmlns:xlink="http://www.w3.org/1999/xlink" x="0px" y="20px"
	 width="5000x" height="5000px" viewBox="0 0 480 640" style="enable-background:new 0 0 480 640;" xml:space="preserve">
<g>
	<path style="fill:#E9E9DD;" d="M34.245,371.482h7.744v52.887h25.343v6.424H34.245V371.482z"/>
	<path style="fill:#E9E9DD;" d="M85.459,412.138l-6.16,18.655h-7.92l20.24-59.311h9.152l20.239,59.311h-8.184l-6.336-18.655H85.459z
		 M104.995,406.153l-5.896-17.071c-1.32-3.872-2.2-7.392-3.08-10.823h-0.176c-0.88,3.432-1.76,7.128-2.992,10.735l-5.808,17.159
		H104.995z"/>
	<path style="fill:#E9E9DD;" d="M129.724,430.793v-59.311h8.448l18.919,30.008c4.312,6.951,7.832,13.199,10.56,19.271l0.264-0.089
		c-0.704-7.919-0.88-15.135-0.88-24.375v-24.815h7.216v59.311h-7.744l-18.832-30.095c-4.136-6.601-8.096-13.376-11-19.8
		l-0.264,0.088c0.44,7.479,0.528,14.607,0.528,24.463v25.344H129.724z"/>
	<path style="fill:#E9E9DD;" d="M183.58,426.305l32.823-48.134v-0.265h-30.007v-6.424h40.039v4.664l-32.735,47.959v0.264h33.175
		v6.424H183.58V426.305z"/>
	<path style="fill:#E9E9DD;" d="M245.882,412.138l-6.16,18.655h-7.92l20.24-59.311h9.151l20.239,59.311h-8.184l-6.336-18.655
		H245.882z M265.418,406.153l-5.896-17.071c-1.319-3.872-2.2-7.392-3.08-10.823h-0.176c-0.88,3.432-1.76,7.128-2.992,10.735
		l-5.808,17.159H265.418z"/>
	<path style="fill:#E9E9DD;" d="M290.146,372.362c4.664-0.792,10.208-1.319,16.28-1.319c10.999,0,18.831,2.64,24.022,7.392
		c5.368,4.84,8.448,11.703,8.448,21.295c0,9.68-3.08,17.6-8.536,23.056c-5.632,5.544-14.783,8.536-26.311,8.536
		c-5.544,0-10.032-0.265-13.904-0.704V372.362z M297.803,424.81c1.936,0.264,4.752,0.352,7.743,0.352
		c16.456,0,25.256-9.151,25.256-25.167c0.088-13.992-7.832-22.88-24.023-22.88c-3.96,0-6.952,0.353-8.976,0.792V424.81z"/>
	<path style="fill:#E9E9DD;" d="M399.439,400.521c0,20.328-12.407,31.239-27.543,31.239c-15.752,0-26.663-12.231-26.663-30.183
		c0-18.832,11.615-31.151,27.455-31.151C388.968,370.427,399.439,382.834,399.439,400.521z M353.329,401.401
		c0,12.76,6.864,24.111,19.008,24.111s19.007-11.175,19.007-24.639c0-11.88-6.159-24.199-18.919-24.199
		S353.329,388.466,353.329,401.401z"/>
	<path style="fill:#E9E9DD;" d="M409.385,372.274c3.872-0.704,9.504-1.231,14.696-1.231c8.184,0,13.551,1.584,17.159,4.84
		c2.904,2.64,4.664,6.688,4.664,11.352c0,7.743-4.928,12.936-11.088,15.048v0.264c4.488,1.584,7.216,5.808,8.624,11.968
		c1.936,8.271,3.344,13.991,4.575,16.279h-7.92c-0.968-1.76-2.287-6.775-3.871-14.168c-1.761-8.184-5.017-11.264-11.968-11.527
		h-7.216v25.695h-7.656V372.274z M417.041,399.29h7.832c8.184,0,13.375-4.488,13.375-11.264c0-7.656-5.544-11-13.64-11
		c-3.695,0-6.248,0.265-7.567,0.616V399.29z"/>
</g>
<g>
	<polygon style="fill:#E3E3E3;" points="414.08,149.839 44.191,249.517 149.968,305.999 	"/>
</g>
<g>
	<path style="fill:#FFFFFF;" d="M149.968,308.999c-0.485,0-0.971-0.117-1.413-0.354L42.778,252.163
		c-1.085-0.58-1.707-1.764-1.567-2.987c0.139-1.223,1.012-2.236,2.2-2.556L413.3,146.942c1.446-0.39,2.963,0.349,3.545,1.732
		s0.054,2.983-1.237,3.747l-264.112,156.16C151.025,308.859,150.497,308.999,149.968,308.999z M52.292,250.441l97.602,52.117
		l243.7-144.091L52.292,250.441z"/>
</g>
<g>
	<polygon style="fill:#6468A6;" points="149.968,305.998 160.894,382.916 414.08,149.838 	"/>
</g>
<g>
	<path style="fill:#FFFFFF;" d="M160.894,385.916c-0.338,0-0.679-0.057-1.008-0.175c-1.05-0.374-1.805-1.3-1.962-2.403
		l-10.926-76.918c-0.17-1.201,0.399-2.387,1.443-3.004l264.112-156.16c1.32-0.78,3.02-0.439,3.936,0.793
		c0.915,1.232,0.753,2.957-0.376,3.996L162.926,385.123C162.363,385.642,161.635,385.916,160.894,385.916z M153.22,307.561
		l9.842,69.282l228.054-209.941L153.22,307.561z"/>
</g>
<g>
	<polygon style="fill:#8BB5BF;" points="160.894,382.916 195.56,313.984 414.081,149.838 	"/>
</g>
<g>
	<path style="fill:#FFFFFF;" d="M160.893,385.916c-0.634,0-1.27-0.2-1.806-0.605c-1.157-0.872-1.524-2.447-0.874-3.742
		l34.666-68.932c0.208-0.413,0.508-0.773,0.878-1.051L412.279,147.44c1.28-0.96,3.085-0.748,4.107,0.479
		c1.022,1.229,0.902,3.044-0.273,4.126L162.925,385.123C162.354,385.649,161.625,385.916,160.893,385.916z M197.924,315.961
		l-26.959,53.606l196.897-181.259L197.924,315.961z"/>
</g>
<g>
	<polygon style="fill:#E3E3E3;" points="195.56,313.984 333.534,387.854 414.081,149.838 	"/>
</g>
<g>
	<path style="fill:#FFFFFF;" d="M333.534,390.854c-0.488,0-0.976-0.119-1.416-0.355l-137.975-73.869
		c-0.903-0.483-1.497-1.395-1.575-2.416s0.37-2.012,1.189-2.627L412.279,147.44c1.052-0.791,2.495-0.803,3.561-0.032
		c1.065,0.771,1.505,2.146,1.083,3.392l-80.547,238.015c-0.283,0.835-0.919,1.504-1.739,1.828
		C334.282,390.784,333.907,390.854,333.534,390.854z M201.121,313.559l130.707,69.979l76.304-225.478L201.121,313.559z"/>
</g>
<g>
	<path style="fill:#E9E9DD;" d="M58.518,436.648v36.857c0,2.709,0.126,5.796,0.252,7.875h-4.914l-0.252-5.292h-0.189
		c-1.638,3.402-5.292,5.985-10.27,5.985c-7.372,0-13.105-6.237-13.105-15.499c-0.063-10.144,6.3-16.318,13.672-16.318
		c4.725,0,7.813,2.205,9.199,4.6h0.126v-18.208H58.518z M53.037,463.299c0-0.693-0.063-1.638-0.252-2.331
		c-0.819-3.465-3.843-6.363-8.001-6.363c-5.733,0-9.135,5.04-9.135,11.719c0,6.174,3.087,11.277,9.009,11.277
		c3.717,0,7.12-2.521,8.127-6.615c0.189-0.756,0.252-1.512,0.252-2.395V463.299z"/>
	<path style="fill:#E9E9DD;" d="M70.865,467.142c0.126,7.498,4.851,10.585,10.458,10.585c3.969,0,6.426-0.693,8.442-1.575
		l1.008,3.97c-1.953,0.882-5.355,1.953-10.207,1.953c-9.388,0-14.995-6.237-14.995-15.437c0-9.198,5.418-16.381,14.302-16.381
		c10.018,0,12.601,8.694,12.601,14.302c0,1.135-0.063,1.953-0.189,2.583H70.865z M87.12,463.173
		c0.063-3.465-1.449-8.946-7.687-8.946c-5.67,0-8.064,5.104-8.505,8.946H87.12z"/>
	<path style="fill:#E9E9DD;" d="M154.15,474.072c0,2.646,0.126,5.229,0.441,7.309h-4.977l-0.441-3.843h-0.189
		c-1.701,2.394-4.977,4.536-9.324,4.536c-6.174,0-9.325-4.348-9.325-8.758c0-7.371,6.552-11.403,18.334-11.341v-0.63
		c0-2.457-0.693-7.057-6.93-6.993c-2.898,0-5.859,0.819-8.001,2.268l-1.26-3.717c2.52-1.575,6.237-2.646,10.081-2.646
		c9.325,0,11.593,6.363,11.593,12.412V474.072z M148.795,465.819c-6.048-0.126-12.916,0.944-12.916,6.867
		c0,3.654,2.394,5.292,5.166,5.292c4.032,0,6.616-2.52,7.498-5.104c0.189-0.63,0.252-1.26,0.252-1.764V465.819z"/>
	<path style="fill:#E9E9DD;" d="M163.095,460.842c0-3.906-0.126-7.057-0.252-9.955h4.915l0.315,5.229h0.126
		c2.205-3.717,5.859-5.859,10.836-5.859c7.435,0,12.979,6.237,12.979,15.437c0,10.962-6.742,16.381-13.924,16.381
		c-4.032,0-7.561-1.765-9.388-4.789h-0.126v16.57h-5.481V460.842z M168.576,468.969c0,0.819,0.063,1.575,0.252,2.269
		c1.008,3.843,4.347,6.489,8.316,6.489c5.859,0,9.262-4.788,9.262-11.781c0-6.049-3.213-11.278-9.073-11.278
		c-3.78,0-7.371,2.646-8.379,6.805c-0.189,0.693-0.378,1.512-0.378,2.205V468.969z"/>
	<path style="fill:#E9E9DD;" d="M198.941,436.648h5.544v44.732h-5.544V436.648z"/>
	<path style="fill:#E9E9DD;" d="M219.983,442.318c0,1.891-1.323,3.402-3.528,3.402c-2.016,0-3.339-1.512-3.339-3.402
		c0-1.89,1.386-3.465,3.465-3.465C218.597,438.854,219.983,440.365,219.983,442.318z M213.809,481.381v-30.494h5.544v30.494H213.809
		z"/>
	<path style="fill:#E9E9DD;" d="M250.286,480.31c-1.449,0.693-4.662,1.765-8.758,1.765c-9.198,0-15.184-6.237-15.184-15.563
		c0-9.388,6.426-16.255,16.381-16.255c3.276,0,6.175,0.819,7.687,1.639l-1.26,4.221c-1.323-0.692-3.402-1.449-6.427-1.449
		c-6.993,0-10.773,5.229-10.773,11.53c0,7.056,4.536,11.403,10.585,11.403c3.149,0,5.229-0.756,6.804-1.449L250.286,480.31z"/>
	<path style="fill:#E9E9DD;" d="M278.195,474.072c0,2.646,0.126,5.229,0.441,7.309h-4.978l-0.441-3.843h-0.188
		c-1.701,2.394-4.978,4.536-9.325,4.536c-6.174,0-9.324-4.348-9.324-8.758c0-7.371,6.553-11.403,18.334-11.341v-0.63
		c0-2.457-0.693-7.057-6.931-6.993c-2.897,0-5.859,0.819-8.001,2.268l-1.26-3.717c2.52-1.575,6.237-2.646,10.08-2.646
		c9.324,0,11.593,6.363,11.593,12.412V474.072z M272.84,465.819c-6.048-0.126-12.916,0.944-12.916,6.867
		c0,3.654,2.395,5.292,5.167,5.292c4.032,0,6.615-2.52,7.497-5.104c0.189-0.63,0.252-1.26,0.252-1.764V465.819z"/>
	<path style="fill:#E9E9DD;" d="M308.876,480.31c-1.449,0.693-4.663,1.765-8.758,1.765c-9.198,0-15.184-6.237-15.184-15.563
		c0-9.388,6.426-16.255,16.381-16.255c3.275,0,6.174,0.819,7.687,1.639l-1.261,4.221c-1.323-0.692-3.402-1.449-6.426-1.449
		c-6.994,0-10.774,5.229-10.774,11.53c0,7.056,4.537,11.403,10.585,11.403c3.15,0,5.229-0.756,6.805-1.449L308.876,480.31z"/>
	<path style="fill:#E9E9DD;" d="M321.538,442.318c0,1.891-1.323,3.402-3.528,3.402c-2.016,0-3.339-1.512-3.339-3.402
		c0-1.89,1.386-3.465,3.465-3.465C320.152,438.854,321.538,440.365,321.538,442.318z M315.364,481.381v-30.494h5.544v30.494H315.364
		z"/>
	<path style="fill:#E9E9DD;" d="M357.7,465.882c0,11.277-7.875,16.192-15.184,16.192c-8.19,0-14.616-6.049-14.616-15.688
		c0-10.144,6.741-16.129,15.12-16.129C351.778,450.257,357.7,456.62,357.7,465.882z M333.57,466.197
		c0,6.678,3.78,11.719,9.198,11.719c5.293,0,9.262-4.978,9.262-11.845c0-5.167-2.583-11.656-9.136-11.656
		C336.405,454.415,333.57,460.464,333.57,466.197z"/>
	<path style="fill:#E9E9DD;" d="M364.692,459.141c0-3.213-0.063-5.733-0.252-8.254h4.914l0.314,5.041h0.126
		c1.513-2.836,5.041-5.671,10.081-5.671c4.221,0,10.773,2.521,10.773,12.979v18.145h-5.544v-17.578c0-4.914-1.827-9.01-7.057-9.01
		c-3.591,0-6.427,2.584-7.435,5.671c-0.252,0.692-0.378,1.638-0.378,2.583v18.334h-5.544V459.141z"/>
	<path style="fill:#E9E9DD;" d="M402.744,467.142c0.126,7.498,4.852,10.585,10.459,10.585c3.969,0,6.426-0.693,8.442-1.575
		l1.008,3.97c-1.953,0.882-5.355,1.953-10.207,1.953c-9.388,0-14.994-6.237-14.994-15.437c0-9.198,5.418-16.381,14.302-16.381
		c10.018,0,12.601,8.694,12.601,14.302c0,1.135-0.063,1.953-0.189,2.583H402.744z M418.999,463.173
		c0.063-3.465-1.449-8.946-7.687-8.946c-5.67,0-8.064,5.104-8.506,8.946H418.999z"/>
	<path style="fill:#E9E9DD;" d="M430.463,475.773c1.701,1.008,4.6,2.143,7.372,2.143c3.969,0,5.859-1.953,5.859-4.536
		c0-2.646-1.575-4.032-5.607-5.545c-5.545-2.016-8.128-4.978-8.128-8.632c0-4.914,4.032-8.946,10.521-8.946
		c3.088,0,5.797,0.819,7.435,1.891l-1.323,4.032c-1.196-0.756-3.401-1.827-6.237-1.827c-3.275,0-5.04,1.89-5.04,4.158
		c0,2.52,1.765,3.654,5.733,5.229c5.229,1.953,8.002,4.599,8.002,9.135c0,5.419-4.222,9.199-11.341,9.199
		c-3.34,0-6.427-0.883-8.568-2.143L430.463,475.773z"/>
</g>
</svg>
