<svg xmlns="http://www.w3.org/2000/svg" viewBox="0 0 111.53 113"><defs><style>.cls-1{fill:#2b2c4d;}.cls-2{fill:#fff;}.cls-3{fill:none;stroke:#2b2c4d;stroke-miterlimit:10;}.cls-4{fill:#f2ba52;}.cls-5{fill:#f6f6f6;}</style></defs><title>prensa_illus</title><g id="Capa_2" data-name="Capa 2"><g id="Capa_1-2" data-name="Capa 1"><path class="cls-1" d="M74.16,33a12.53,12.53,0,0,1,2.49,1.13A5.81,5.81,0,0,1,79,38.64c0,.27,0,.55,0,.82Q79,73,79,106.54a6.67,6.67,0,0,1-2.27,5.3A5.2,5.2,0,0,1,73.14,113h-7c-8.23,0-16.46,0-24.69,0a6.42,6.42,0,0,1-2.82-.58A5.54,5.54,0,0,1,35.52,108a9.67,9.67,0,0,1-.09-1.42q0-33.64,0-67.3a6.13,6.13,0,0,1,2.26-5.13A11.89,11.89,0,0,1,40.23,33ZM75,43H40V94H75ZM57.27,36.56H49.7a1.45,1.45,0,0,0-.83.21,2.16,2.16,0,0,0-.2,2.13c.25.56.74.5,1.22.5H64.36c1.25,0,1.59-.35,1.54-1.61,0-.95-.33-1.24-1.28-1.24H57.27m0,70.59a3.59,3.59,0,0,0,3.54-3.69,4,4,0,0,0-3.57-3.72,4,4,0,0,0-3.58,3.72,3.6,3.6,0,0,0,3.61,3.69"/><rect class="cls-2" x="40" y="43" width="35" height="51"/><path class="cls-2" d="M57.27,36.15h7.32a1.32,1.32,0,0,1,1.31,1.24c0,1.26-.29,1.61-1.54,1.61H49.89c-.48,0-1,.06-1.22-.5a2.16,2.16,0,0,1,.2-2.13,1.45,1.45,0,0,1,.83-.21h7.57"/><path class="cls-2" d="M57.23,107.15a3.6,3.6,0,0,1-3.61-3.69,4,4,0,0,1,3.58-3.72,4,4,0,0,1,3.57,3.72,3.59,3.59,0,0,1-3.54,3.69"/><path class="cls-2" d="M39,33H2.82A2.78,2.78,0,0,0,0,35.74V51.26A2.78,2.78,0,0,0,2.82,54h3.3l8.68,5.14L11.89,54H39.18A2.78,2.78,0,0,0,42,51.26V35.74A2.78,2.78,0,0,0,39.18,33"/><path class="cls-3" d="M39.68,32.5H3.32A2.78,2.78,0,0,0,.5,35.24V50.76A2.78,2.78,0,0,0,3.32,53.5h3.3l8.68,5.14L12.39,53.5H39.68a2.78,2.78,0,0,0,2.82-2.74V35.24A2.78,2.78,0,0,0,39.68,32.5Z"/><path class="cls-1" d="M36,44H6.5a1.5,1.5,0,0,1,0-3h29a1.5,1.5,0,0,1,0,3"/><path class="cls-2" d="M60,1H23.82A2.78,2.78,0,0,0,21,3.74V19.26A2.78,2.78,0,0,0,23.82,22h3.3l8.68,5.14L32.89,22H60.18A2.78,2.78,0,0,0,63,19.26V3.74A2.78,2.78,0,0,0,60.18,1"/><path class="cls-3" d="M60.68.5H24.32A2.78,2.78,0,0,0,21.5,3.24V18.76a2.78,2.78,0,0,0,2.82,2.74h3.3l8.68,5.14L33.39,21.5H60.68a2.78,2.78,0,0,0,2.82-2.74V3.24A2.78,2.78,0,0,0,60.68.5Z"/><path class="cls-1" d="M57,11H27.5a1.5,1.5,0,0,1,0-3h29a1.5,1.5,0,0,1,0,3"/><path class="cls-2" d="M82,8H65.42c-4.36,0-7.83,1.85-7.65,4.07l1.87,22.19c.17,1.93,3.06,3.49,6.74,3.71,0,.23,6.13,6.57,9.61,6.68,0,0-5.91-5.73-5-6.65h8.13c4,0,7.34-1.58,7.63-3.63L89.9,12.19C90.22,9.93,86.71,8,82.27,8"/><path class="cls-3" d="M82.27,8.5H65.42c-4.36,0-7.83,1.85-7.65,4.07l1.87,22.19c.17,1.93,3.06,3.49,6.74,3.71,0,.23,6.13,6.57,9.61,6.68,0,0-5.91-5.73-5-6.65h8.13c4,0,7.34-1.58,7.63-3.63L89.9,12.69C90.22,10.43,86.71,8.5,82.27,8.5Z"/><path class="cls-1" d="M83,23H63.5a1.5,1.5,0,0,1,0-3h19a1.5,1.5,0,0,1,0,3"/><path class="cls-1" d="M83,30H63.5a1.5,1.5,0,0,1,0-3h19a1.5,1.5,0,0,1,0,3"/><path class="cls-2" d="M106,105l-31.27.54A4.56,4.56,0,0,1,70,101.17V70s1.84-4.48,4.41-5h18l-3.89-6,13.85,7h3.38c2.56-1.12,4.26,3.29,4.26,3.29l.53,31.22A4.54,4.54,0,0,1,106,105"/><path class="cls-3" d="M106.47,105.5,75.22,106a4.55,4.55,0,0,1-4.72-4.36V70s1.34-4.48,3.91-4.48h18L88.51,59l13.85,6.52,3.42-.06a4.55,4.55,0,0,1,4.72,4.36L111,101A4.54,4.54,0,0,1,106.47,105.5Z"/><path class="cls-1" d="M103,79H77.5A1.51,1.51,0,0,1,76,77.5v-1A1.51,1.51,0,0,1,77.5,75h26a1.51,1.51,0,0,1,1.5,1.5v1A1.53,1.53,0,0,1,103.48,79"/><path class="cls-1" d="M103,92H77.5A1.51,1.51,0,0,1,76,90.5v-1A1.51,1.51,0,0,1,77.5,88h26a1.51,1.51,0,0,1,1.5,1.5v1A1.53,1.53,0,0,1,103.48,92"/><path class="cls-4" d="M12,68H35.45A3.5,3.5,0,0,1,39,71.44V95.56A3.5,3.5,0,0,1,35.45,99H21.73l2.88,4.82L14.13,99H11.55A3.5,3.5,0,0,1,8,95.56V71.44A3.5,3.5,0,0,1,11.55,68"/><path class="cls-5" d="M34,77H14.5a1.5,1.5,0,0,1,0-3h19a1.5,1.5,0,0,1,0,3"/><path class="cls-5" d="M34,85H14.5a1.5,1.5,0,0,1,0-3h19a1.5,1.5,0,0,1,0,3"/><path class="cls-5" d="M34,93H14.5a1.5,1.5,0,0,1,0-3h19a1.5,1.5,0,0,1,0,3"/></g></g></svg>