<svg xmlns="http://www.w3.org/2000/svg" viewBox="0 0 80.58 113.7"><defs><style>.cls-1{fill:#2b2c4d;}.cls-2{fill:#1d71b8;}</style></defs><title>rrhh_illus</title><g id="Capa_2" data-name="Capa 2"><g id="Capa_1-2" data-name="Capa 1"><path class="cls-1" d="M22.88,111.17a7.27,7.27,0,0,1-12.79-4.85q0-15.84,0-31.69V71l-.7.29A6.7,6.7,0,0,1,.07,65.52C-.06,63.25,0,61,0,58.7,0,54,0,49.32,0,44.63A16.65,16.65,0,0,1,14.74,27.81a14.67,14.67,0,0,1,2-.12c4.12,0,8.24,0,12.36,0a23.59,23.59,0,0,1,3.45.35,1.7,1.7,0,0,1,1.56,2.06,1.77,1.77,0,0,1-2.17,1.32c-1.41-.16-2.83-.3-4.24-.32-3.6,0-7.2,0-10.8,0A13.23,13.23,0,0,0,3.45,44.46c0,6.82,0,13.64,0,20.46a3.31,3.31,0,0,0,5.83,2.32,3.36,3.36,0,0,0,.8-2.29V51.16q0-3.87,0-7.74a1.72,1.72,0,1,1,3.41,0q0,14.1,0,28.2,0,17.41,0,34.82a3.82,3.82,0,1,0,7.63-.06V76.48c0-.24,0-.48,0-.71A1.7,1.7,0,0,1,22.92,74a1.66,1.66,0,0,1,1.66,1.76c0,2.46,0,4.93,0,7.39q0,11.58,0,23.16a3.82,3.82,0,1,0,7.63,0c0-7.43,0-14.87,0-22.31,0-.26,0-.52,0-.78a1.71,1.71,0,0,1,3.41,0v.36c0,7.55,0,15.11,0,22.66a7.27,7.27,0,0,1-12.77,4.85"/><path class="cls-1" d="M64.64,68.1l9,8.82q2.47,2.4,4.94,4.81a6.44,6.44,0,1,1-9,9.22q-6.88-6.72-13.76-13.46a1,1,0,0,0-1.28-.21,23.33,23.33,0,1,1,10.24-9.55l-.19.37m-20.1,8.06A19.92,19.92,0,1,0,24.6,56.31,19.93,19.93,0,0,0,44.54,76.16m13.86-1a.35.35,0,0,0,.08.1q6.81,6.66,13.63,13.29a3.09,3.09,0,0,0,1.08.66A3,3,0,0,0,76.72,88a3,3,0,0,0-.51-3.77c-4-3.88-7.94-7.74-11.89-11.62-.54-.52-1-1.13-1.45-1.66L58.4,75.16"/><path class="cls-1" d="M34.14,11.25A11.26,11.26,0,1,1,22.89,0,11.25,11.25,0,0,1,34.14,11.25m-3.43,0a7.84,7.84,0,1,0-7.79,7.85,7.81,7.81,0,0,0,7.79-7.85"/><path class="cls-1" d="M40.31,55.48l2.13-2.57c2.12-2.57,4.23-5.17,6.38-7.71a5.73,5.73,0,0,1,10,2.43,5.36,5.36,0,0,1-1.09,4.75q-6.14,7.5-12.34,15a5.7,5.7,0,0,1-8,.72c-1.81-1.5-3.59-3-5.36-4.55a5.74,5.74,0,0,1,7.4-8.77c.28.22.55.45.89.74m.43,4.86-3.29-2.78a2.31,2.31,0,0,0-3.41.09,2.34,2.34,0,0,0,.42,3.44l4.77,4c1.42,1.21,2.66,1.1,3.84-.33l6.65-8c1.77-2.14,3.55-4.26,5.28-6.42a2.29,2.29,0,0,0-1.4-3.77,2.36,2.36,0,0,0-2.29,1l-10,12.11-.58.68"/><path class="cls-2" d="M40.74,60.34l.58-.68,10-12.11a2.36,2.36,0,0,1,2.29-1A2.29,2.29,0,0,1,55,50.33c-1.73,2.16-3.51,4.28-5.28,6.42l-6.65,8c-1.18,1.43-2.42,1.54-3.84.33l-4.77-4A2.34,2.34,0,0,1,34,57.65a2.31,2.31,0,0,1,3.41-.09l3.29,2.78"/></g></g></svg>