<?xml version="1.0" encoding="iso-8859-1"?>
<!-- Generator: Adobe Illustrator 16.0.3, SVG Export Plug-In . SVG Version: 6.00 Build 0)  -->
<!DOCTYPE svg PUBLIC "-//W3C//DTD SVG 1.1//EN" "http://www.w3.org/Graphics/SVG/1.1/DTD/svg11.dtd">
<svg version="1.1" id="Capa_1" xmlns="http://www.w3.org/2000/svg" xmlns:xlink="http://www.w3.org/1999/xlink" x="0px" y="0px"
	 width="640px" height="480px" viewBox="0 0 640 480" style="enable-background:new 0 0 640 480;" xml:space="preserve">
<g>
	<rect x="166.753" y="148.5" style="fill:#FFFFFF;" width="388.128" height="227.352"/>
	<path style="fill:#005B83;" d="M557.342,132.857H328.247v20.138h215.858v219.237H172.628v-79.366H146.52v91.112
		c0,6.42,5.208,11.646,11.651,11.646h159.764v19.031h-80.256c-5.256,0-9.514,4.247-9.514,9.513v7.134
		c0,5.247,4.258,9.505,9.514,9.505H477.84c5.26,0,9.518-4.258,9.518-9.505v-7.134c0-5.266-4.258-9.513-9.518-9.513h-80.258v-19.031
		h159.76c6.435,0,11.651-5.227,11.651-11.646v-239.46C568.993,138.08,563.776,132.857,557.342,132.857"/>
	<path style="fill:#82368C;" d="M313.085,95.691l-4.274-15.896c-0.656-2.445-3.185-3.905-5.623-3.246l-11.208,3.02
		c-1.781-2.944-3.852-5.645-6.182-8.076l5.78-10.037c1.268-2.198,0.518-5-1.687-6.271l-14.258-8.22
		c-2.201-1.263-5.011-0.503-6.279,1.691l-5.786,10.038c-3.265-0.802-6.644-1.231-10.075-1.294l-3.016-11.223
		c-0.658-2.444-3.175-3.888-5.623-3.23l-15.9,4.273c-2.437,0.667-3.899,3.171-3.241,5.628l3.014,11.209
		c-2.937,1.771-5.649,3.843-8.07,6.179l-10.03-5.788c-2.216-1.256-5.016-0.508-6.275,1.687l-8.225,14.265
		c-0.235,0.408-0.333,0.846-0.431,1.284c-0.089-1.54-1.209-2.86-2.805-3.062l-8.343-1.053c-0.367-2.343-0.995-4.641-1.874-6.887
		l6.64-5.155c1.43-1.101,1.682-3.171,0.572-4.59l-7.194-9.279c-1.107-1.419-3.16-1.688-4.586-0.576l-6.648,5.158
		c-1.956-1.419-4.022-2.586-6.199-3.537l1.063-8.345c0.209-1.798-1.051-3.438-2.852-3.659l-11.648-1.48
		c-1.797-0.226-3.432,1.046-3.659,2.853l-1.051,8.347c-2.344,0.376-4.632,0.999-6.882,1.887l-5.15-6.65
		c-1.119-1.428-3.168-1.696-4.603-0.584l-9.27,7.196c-1.422,1.118-1.69,3.168-0.577,4.616l5.153,6.628
		c-1.417,1.959-2.596,4.022-3.53,6.2l-8.353-1.053c-1.784-0.232-3.423,1.043-3.65,2.841l-1.465,11.645
		c-0.23,1.794,1.034,3.426,2.831,3.654l8.343,1.043c0.372,2.354,0.995,4.648,1.892,6.896l-6.652,5.153
		c-1.426,1.113-1.69,3.173-0.576,4.601l7.199,9.261c1.102,1.428,3.155,1.702,4.598,0.585l6.645-5.155
		c1.951,1.417,4.017,2.593,6.19,3.528l-1.055,8.352c-0.222,1.802,1.055,3.438,2.839,3.655l11.657,1.484
		c1.785,0.218,3.429-1.055,3.655-2.861l1.045-8.338c2.345-0.367,4.642-0.991,6.888-1.878l5.158,6.642
		c1.106,1.437,3.164,1.678,4.594,0.581l9.274-7.201c1.421-1.102,1.686-3.166,0.581-4.582l-5.163-6.654
		c1.422-1.955,2.591-4.024,3.535-6.2l8.343,1.053c1.802,0.228,3.437-1.032,3.66-2.833l1.358-10.714
		c0.158,1.398,0.875,2.708,2.194,3.466l10.038,5.779c-0.812,3.262-1.235,6.646-1.303,10.079l-11.2,3.016
		c-2.45,0.655-3.902,3.183-3.244,5.625l4.273,15.902c0.649,2.445,3.186,3.896,5.631,3.241l11.208-3.012
		c1.777,2.933,3.844,5.637,6.173,8.061l-5.789,10.034c-1.268,2.203-0.506,5.015,1.691,6.279l14.273,8.207
		c2.191,1.281,4.991,0.533,6.268-1.683l5.782-10.034c3.27,0.81,6.647,1.232,10.075,1.303l3.016,11.206
		c0.661,2.452,3.193,3.904,5.631,3.24l15.896-4.271c2.447-0.655,3.899-3.187,3.241-5.631l-3.018-11.206
		c2.937-1.781,5.645-3.838,8.074-6.183l10.035,5.781c2.201,1.277,5.016,0.523,6.28-1.697l8.214-14.254
		c1.269-2.191,0.518-5.002-1.689-6.272l-10.038-5.791c0.802-3.262,1.229-6.637,1.296-10.065l11.208-3.021
		C312.295,100.668,313.747,98.135,313.085,95.691 M136.656,94.827c-6.678-8.605-5.11-21.043,3.488-27.719
		c8.612-6.671,21.045-5.105,27.724,3.496c6.669,8.605,5.111,21.036-3.498,27.71C155.759,104.991,143.343,103.432,136.656,94.827
		 M259.792,130.184c-14.745,3.966-29.971-4.814-33.94-19.563c-3.967-14.75,4.812-29.979,19.555-33.935
		c14.743-3.971,29.972,4.799,33.944,19.543C283.316,110.98,274.541,126.219,259.792,130.184"/>
	<path style="fill:#82368C;" d="M224.588,176.674c-0.863-3.217-4.177-5.128-7.409-4.263l-14.722,3.962
		c-2.335-3.862-5.05-7.41-8.117-10.608l7.596-13.193c1.666-2.89,0.676-6.577-2.212-8.229l-18.743-10.817
		c-2.895-1.661-6.572-0.673-8.254,2.218l-7.595,13.196c-4.295-1.054-8.736-1.614-13.25-1.71l-3.958-14.717
		c-0.866-3.226-4.179-5.132-7.399-4.268l-20.887,5.628c-3.211,0.866-5.132,4.167-4.266,7.397l3.958,14.722
		c-3.855,2.333-7.412,5.054-10.597,8.119l-13.198-7.602c-2.895-1.659-6.575-0.666-8.241,2.216l-10.802,18.766
		c-1.669,2.882-0.666,6.558,2.211,8.228l13.202,7.609c-1.055,4.292-1.619,8.735-1.708,13.242l-14.721,3.958
		c-3.225,0.865-5.125,4.188-4.261,7.406l5.618,20.885c0.864,3.221,4.172,5.127,7.396,4.262l14.723-3.964
		c2.339,3.865,5.055,7.417,8.125,10.603l-7.608,13.201c-1.657,2.882-0.663,6.566,2.225,8.24l18.748,10.794
		c2.882,1.67,6.571,0.667,8.245-2.219l7.596-13.177c4.295,1.051,8.74,1.617,13.245,1.699l3.962,14.73
		c0.867,3.221,4.193,5.127,7.403,4.26l20.892-5.619c3.219-0.863,5.127-4.174,4.261-7.394l-3.958-14.731
		c3.859-2.343,7.417-5.05,10.607-8.129l13.183,7.6c2.9,1.661,6.584,0.666,8.246-2.221l10.806-18.74
		c1.653-2.898,0.662-6.586-2.228-8.246l-13.188-7.599c1.054-4.303,1.617-8.735,1.703-13.249l14.722-3.962
		c3.228-0.865,5.14-4.173,4.277-7.401L224.588,176.674z M160.174,242.899c-19.389,5.226-39.409-6.308-44.618-25.695
		c-5.218-19.391,6.311-39.408,25.699-44.623c19.389-5.211,39.393,6.317,44.61,25.714
		C191.079,217.676,179.567,237.692,160.174,242.899"/>
</g>
</svg>
