<svg id="Capa_1" data-name="Capa 1" xmlns="http://www.w3.org/2000/svg" viewBox="0 0 355.32 421.2"><defs><style>.cls-1{fill:#f2ba52;}.cls-2{fill:#f6f6f6;}.cls-3{fill:none;stroke:#2b2c4d;stroke-miterlimit:10;stroke-width:2px;}.cls-4{fill:#2b2c4d;}</style></defs><title>telefonos_illus</title><path class="cls-1" d="M629.66,265.45l-15.79,2.93,17.51,94.37,15.79-2.94c14-2.6,12-11.52,10-22.5L647,282.88c-2-11-3.36-20-17.38-17.43" transform="translate(-341.55 -265)"/><path class="cls-1" d="M648.85,368.85l-15.79,2.93,17.52,94.36,15.79-2.93c14-2.6,12-11.53,10-22.51l-10.11-54.42c-2-11-3.35-20-17.38-17.43" transform="translate(-341.55 -265)"/><path class="cls-1" d="M667.94,471.66l-15.79,2.94L669.67,569,685.45,566c14-2.61,12-11.53,10-22.51L685.32,489.1c-2-11-3.36-20-17.38-17.44" transform="translate(-341.55 -265)"/><path class="cls-2" d="M390.94,309.76c-21.2,3.94-34.68,28-29.95,53.45l10.26,55.28,31.88,171.75,10.27,55.28c4.72,25.45,25.93,43.07,47.13,39.13l215.08-39.92L656.75,543.16,624.87,371.41,606,269.84Z" transform="translate(-341.55 -265)"/><path class="cls-3" d="M390.94,309.76c-21.2,3.94-34.68,28-29.95,53.45l10.26,55.28,31.88,171.75,10.27,55.28c4.72,25.45,25.93,43.07,47.13,39.13l215.08-39.92L656.75,543.16,624.87,371.41,606,269.84Z" transform="translate(-341.55 -265)"/><path class="cls-4" d="M597.88,528.91c-11.55-14.42-21.79-19.8-33.86-8.79l-3.09,3c-22.28,3.73-40.57-25.57-45.83-30.33-3.62-6.32-27.76-30-21.42-53.66l3.09-3c11.59-11.6,8.07-23.41-3.47-37.83C483,385.47,476.73,373,466.87,382.4l-6.19,5.91a52.61,52.61,0,0,0-14.8,25h0s-7.35,22.44,3.35,49.16a75.3,75.3,0,0,0,11.18,19.11l28.78,35.94,28.77,36a70,70,0,0,0,15.85,14.65C556.62,583.24,578,578.26,578,578.26c8.25-1.17,17-5.45,24.63-12.7l6.19-5.91c9.86-9.44-.64-17.92-10.9-30.74" transform="translate(-341.55 -265)"/><path class="cls-1" d="M379.54,363.64l-35.71,6.63a3,3,0,0,0-2.22,3.6l1.68,9a3,3,0,0,0,3.36,2.56l35.72-6.63a3,3,0,0,0,2.21-3.6l-1.68-9a3,3,0,0,0-3.36-2.56" transform="translate(-341.55 -265)"/><path class="cls-1" d="M390.52,428.74,356.94,435a4.16,4.16,0,0,0-3.06,5l1.24,6.67a4.15,4.15,0,0,0,4.65,3.55l33.58-6.24a4.14,4.14,0,0,0,3.06-5l-1.24-6.68a4.15,4.15,0,0,0-4.65-3.55" transform="translate(-341.55 -265)"/><path class="cls-1" d="M402.57,493.64,369,499.88a4.15,4.15,0,0,0-3.06,5l1.24,6.67a4.14,4.14,0,0,0,4.64,3.55l33.58-6.23a4.16,4.16,0,0,0,3.07-5l-1.24-6.68a4.16,4.16,0,0,0-4.65-3.55" transform="translate(-341.55 -265)"/><path class="cls-1" d="M414.62,558.55,381,564.78a4.16,4.16,0,0,0-3.06,5l1.23,6.68a4.17,4.17,0,0,0,4.65,3.55l33.58-6.24a4.16,4.16,0,0,0,3.07-5l-1.24-6.67a4.15,4.15,0,0,0-4.65-3.55" transform="translate(-341.55 -265)"/><path class="cls-1" d="M427.74,623.25,392,629.89a3,3,0,0,0-2.22,3.6l1.68,9a3,3,0,0,0,3.36,2.56l35.72-6.63a3,3,0,0,0,2.22-3.6l-1.68-9a3,3,0,0,0-3.36-2.57" transform="translate(-341.55 -265)"/></svg>