<svg xmlns="http://www.w3.org/2000/svg" viewBox="0 0 116.36 118.2"><defs><style>.cls-1{fill:#2b2c4d;}</style></defs><title>viaticos_illus</title><g id="Capa_2" data-name="Capa 2"><g id="Capa_1-2" data-name="Capa 1"><path class="cls-1" d="M73.55,37.69c-3.45,1.79-6.78,3.5-10.09,5.24a1.57,1.57,0,0,0-.56.76Q59.5,51.83,56.11,60c-1.13,2.72-2.53,3.57-5.46,3.38-.22,0-.55.28-.7.51q-5,7.56-9.85,15.15Q29,96.17,17.85,113.3c-.09.14-.2.28-.31.43-2.57-3.38-4.54-3.8-7.72-1.58l-5.06-3.28-3.31-2.15a2.77,2.77,0,0,1-.88-4.13L19,74.13l.38-.58a2.78,2.78,0,0,1,4.18-.91c3.49,2.25,7,4.52,10.44,6.78l1.74,1.13L48,61.77c-1.35-1.8-1.16-3.62-.32-5.59,2.53-5.93,5-11.89,7.43-17.86a5.41,5.41,0,0,1,2.66-2.87q10.81-5.58,21.62-11.19a7.85,7.85,0,0,1,11.35,4.1q4.41,10.53,8.86,21a1.88,1.88,0,0,0,.85.87c4.34,2.1,8.71,4.17,13.07,6.25a4.63,4.63,0,1,1-3.94,8.36l-15.2-7.22a4.81,4.81,0,0,1-2.46-2.58q-1.8-4.34-3.64-8.67c-.11-.25-.23-.5-.41-.91l-1.21,4.83q-1.61,6.53-3.23,13a1.26,1.26,0,0,0,.27,1.23q7.23,9,14.42,17.93a6.57,6.57,0,0,1,1.46,3.59c.78,8.67,1.61,17.34,2.41,26a5.53,5.53,0,1,1-11,1.1c-.54-5.21-1-10.43-1.49-15.65-.27-2.87-.53-5.74-.81-8.61a1.63,1.63,0,0,0-.32-.83q-6-7.44-11.93-14.86a3,3,0,0,0-.23-.21c-.09.26-.18.48-.24.7C74.53,79,73.14,84.21,71.69,89.42a6.62,6.62,0,0,1-1.09,2.23Q61.22,103.83,51.77,116a5.55,5.55,0,0,1-10-3.64A5.72,5.72,0,0,1,43.12,109q8.81-11.32,17.57-22.69a4.12,4.12,0,0,0,.72-1.47q6-23.28,12-46.57l.12-.58"/><path class="cls-1" d="M98.79,10.51A10.51,10.51,0,1,1,88.34,0,10.44,10.44,0,0,1,98.79,10.51"/><path class="cls-1" d="M15.93,115.38a2.75,2.75,0,0,1-2.77,2.81,2.79,2.79,0,0,1-2.78-2.82,2.83,2.83,0,0,1,2.79-2.74,2.78,2.78,0,0,1,2.76,2.75"/></g></g></svg>