<svg id="Capa_1" data-name="Capa 1" xmlns="http://www.w3.org/2000/svg" viewBox="0 0 512.71 296.78"><defs>
<style>.cls-1{fill:#fff;}.cls-2{fill:#242c4f;}.cls-3{fill:#f2ba52;}</style></defs>
<title>webmail_illus</title>
<path class="cls-1" d="M376.71,648.86l-2.06-.5c0-7.53.23-15.07-.07-22.58-.29-7.17-5.15-11.62-11.73-11.4-6.28.22-10.69,4.86-10.93,11.71-.15,4.27,0,8.55,0,12.82,0,30.37,19,49.46,49.21,49.47h346.1c30.13,0,49.12-18.87,49.13-48.89q.07-99.5,0-199a60,60,0,0,0-1-12.72c-4.79-22.06-22.89-36.13-46.41-36.13q-174.72-.06-349.44,0-1.95,0-3.9.06c-20.13.65-38.8,15.77-42.28,35.58-1.62,9.22-1.3,18.87-1.13,28.3.11,6,5.39,10.11,11.28,10.07a10.71,10.71,0,0,0,11-9.76c.51-5.35.19-10.76.39-16.14.11-2.81.56-5.6,1-9.47L503.49,540,376.71,648.86m-30.85-68.81c16.67,0,33.35.08,50,0,8.54,0,13.79-5.66,12.76-13.2-.83-6-5.73-9.75-13.45-9.78-18.53-.08-37.06,0-55.59,0-14.27,0-28.54-.08-42.82,0-7.17.06-11.81,3.48-12.89,9.07-1.51,7.79,3.74,13.83,12.47,13.9,16.5.13,33,0,49.49,0m17.5-80.1c-10.75,0-21.5-.07-32.25,0-7.95.06-13.16,4.46-13.39,11.13-.24,6.86,5,11.81,13.24,11.85q32.27.16,64.51-.05a17.08,17.08,0,0,0,7.93-2c4.75-2.68,6.19-7.25,5-12.46-1.14-5-5.66-8.4-11.69-8.47-11.11-.16-22.24-.05-33.36-.06" transform="translate(-283.64 -391.61)"/><path class="cls-2" d="M376.72,648.86,503.49,540,375.71,430.26c-.4,3.87-.85,6.66-1,9.47-.2,5.38.12,10.79-.39,16.14-.57,5.87-5.26,9.71-11,9.76-5.88.05-11.16-4.07-11.27-10.07-.16-9.43-.5-19.08,1.12-28.3,3.49-19.81,22.16-34.93,42.29-35.58q2-.06,3.9-.06,174.72,0,349.44,0c23.53,0,41.62,14.07,46.41,36.13a60,60,0,0,1,1,12.72q.09,99.5,0,199c0,30-19,48.88-49.13,48.89H401.1c-30.23,0-49.2-19.11-49.22-49.47,0-4.27-.11-8.55,0-12.82.24-6.85,4.65-11.49,10.93-11.7,6.58-.23,11.44,4.22,11.73,11.39.3,7.52.07,15.05.07,22.58l2.07.5M393,414.75c2.34,2.15,3.53,3.29,4.77,4.35q83,71.2,166.13,142.38c8,6.81,12.67,6.81,20.47.12q83.26-71.39,166.51-142.79c1.21-1,2.34-2.18,4.33-4.06ZM393,665H755.42L627.19,554.87c-10.78,9.37-21,18.53-31.52,27.33-12,10-27.83,10.71-40.24,2.18a52.88,52.88,0,0,1-4.74-3.86c-9.78-8.47-19.54-16.95-29.56-25.65L393,665m380-235L644.85,540,772.94,650Z" transform="translate(-283.64 -391.61)"/><path class="cls-3" d="M345.86,580.05c-16.5,0-33,.1-49.49,0-8.73-.07-14-6.11-12.47-13.89,1.08-5.6,5.71-9,12.89-9.08,14.28-.11,28.55,0,42.82,0,18.53,0,37.06,0,55.59,0,7.71,0,12.62,3.74,13.45,9.78,1,7.54-4.22,13.14-12.76,13.2-16.68.12-33.36,0-50,0" transform="translate(-283.64 -391.61)"/><path class="cls-3" d="M363.36,500c11.12,0,22.25-.1,33.36.06,6,.07,10.55,3.43,11.69,8.47,1.18,5.21-.26,9.78-5,12.46a17.08,17.08,0,0,1-7.93,2q-32.25.23-64.51.05c-8.2,0-13.48-5-13.24-11.85.23-6.67,5.44-11.08,13.39-11.13,10.75-.09,21.5,0,32.25,0" transform="translate(-283.64 -391.61)"/><path class="cls-1" d="M393,665,521.13,554.87c10,8.7,19.78,17.18,29.56,25.65a54.34,54.34,0,0,0,4.74,3.86c12.41,8.54,28.27,7.81,40.23-2.18,10.53-8.8,20.75-18,31.53-27.33L755.42,665Z" transform="translate(-283.64 -391.61)"/><path class="cls-1" d="M772.94,430V650L644.85,540,772.94,430" transform="translate(-283.64 -391.61)"/></svg>