<svg id="Capa_1" data-name="Capa 1" xmlns="http://www.w3.org/2000/svg" viewBox="0 0 399.04 320.01">
<defs>
<style>.cls-1{fill:#e6e6e0;}.cls-2{fill:#efb65a;}</style>
</defs>
<title>webmail_logo</title>
<path class="cls-1" d="M71.62,236.62l96.89-83.21L70.85,69.54c-.31,2.95-.65,5.09-.74,7.23-.15,4.11.09,8.25-.3,12.34a8.17,8.17,0,0,1-8.38,7.46c-4.5,0-8.53-3.12-8.61-7.7-.13-7.21-.38-14.58.86-21.62C56.34,52.1,70.61,40.55,86,40.05c1,0,2,0,3,0q133.55,0,267.09,0c18,0,31.81,10.77,35.47,27.62a45.78,45.78,0,0,1,.78,9.73q.07,76.05,0,152.09c0,23-14.54,37.37-37.56,37.37H90.25c-23.1,0-37.6-14.6-37.62-37.81,0-3.27-.08-6.53,0-9.8.19-5.24,3.56-8.78,8.35-8.94,5-.17,8.75,3.23,9,8.71.23,5.74,0,11.5,0,17.25l1.59.39M84.05,57.69c1.8,1.64,2.7,2.51,3.64,3.32q63.5,54.42,127,108.82c6.08,5.21,9.68,5.2,15.64.09Q294,115.37,357.59,60.78c.93-.79,1.79-1.66,3.31-3.09ZM84,249h277l-98-84.2c-8.24,7.16-16.06,14.16-24.1,20.88-9.14,7.65-21.26,8.2-30.75,1.67a40.67,40.67,0,0,1-3.63-3c-7.47-6.47-14.93-12.95-22.58-19.6L84,249M374.46,69.34l-97.9,84.08,97.9,84.05Z" transform="translate(-0.48 -39.99)"/><path class="cls-2" d="M48,184c-12.61,0-25.22.07-37.82,0-6.68-.05-10.69-4.66-9.54-10.62.83-4.27,4.37-6.89,9.86-6.93,10.91-.09,21.81,0,32.72,0,14.17,0,28.33,0,42.5,0,5.89,0,9.64,2.86,10.27,7.48.79,5.75-3.23,10-9.75,10.09-12.75.08-25.49,0-38.24,0" transform="translate(-0.48 -39.99)"/><path class="cls-2" d="M61.41,122.8c8.5,0,17-.07,25.5,0,4.61.06,8.06,2.63,8.93,6.48s-.2,7.48-3.83,9.52a12.8,12.8,0,0,1-6.06,1.5q-24.65.18-49.31,0c-6.27,0-10.3-3.81-10.12-9.06.18-5.09,4.15-8.46,10.23-8.51,8.22-.06,16.44,0,24.66,0" transform="translate(-0.48 -39.99)"/><path class="cls-1" d="M42.59,308.12l6.71,25.79c1.46,5.66,2.84,10.9,3.76,16.14h.32c1.17-5.14,2.83-10.59,4.52-16l8.29-25.89h7.74l7.86,25.36c1.89,6.09,3.36,11.43,4.53,16.57h.29a155.15,155.15,0,0,1,3.9-16.46l7.22-25.47h9.12L90.51,358.86h-8.4l-7.75-24.22A164.44,164.44,0,0,1,69.86,318h-.23A150.92,150.92,0,0,1,65,334.74l-8.18,24.12H48.47L33.16,308.12Z" transform="translate(-0.48 -39.99)"/><path class="cls-1" d="M120.3,335.16c.2,12.48,8.17,17.62,17.4,17.62a33.37,33.37,0,0,0,14.05-2.63l1.58,6.61c-3.27,1.47-8.81,3.14-16.89,3.14-15.63,0-25-10.26-25-25.57s9-27.37,23.8-27.37c16.57,0,21,14.58,21,23.91a33.48,33.48,0,0,1-.32,4.29Zm27-6.6c.11-5.87-2.41-15-12.79-15-9.32,0-13.42,8.6-14.14,15Z" transform="translate(-0.48 -39.99)"/><path class="cls-1" d="M167.36,358.86c.22-3.46.42-8.6.42-13.11V284.42h9.12v31.87h.2c3.27-5.66,9.12-9.33,17.32-9.33,12.56,0,21.48,10.49,21.37,25.9,0,18.14-11.42,27.15-22.74,27.15-7.34,0-13.22-2.83-17-9.54h-.32l-.42,8.39Zm9.54-20.35a15.84,15.84,0,0,0,.43,3.36,14.24,14.24,0,0,0,13.83,10.81c9.65,0,15.42-7.87,15.42-19.51,0-10.17-5.25-18.87-15.11-18.87-6.28,0-12.16,4.3-14.05,11.32a18.94,18.94,0,0,0-.52,3.77Z" transform="translate(-0.48 -39.99)"/><path class="cls-1" d="M227.52,321.85c0-5.24-.11-9.55-.43-13.73h8.08l.41,8.17h.32c2.83-4.82,7.56-9.33,15.94-9.33a15,15,0,0,1,14.36,10.17h.2a21,21,0,0,1,5.68-6.6A17.28,17.28,0,0,1,283.29,307c6.71,0,16.66,4.4,16.66,22v29.88h-9V330.13c0-9.75-3.56-15.62-11-15.62-5.25,0-9.32,3.87-10.9,8.39a14.89,14.89,0,0,0-.74,4.61v31.35h-9V328.45c0-8.07-3.58-13.94-10.61-13.94-5.76,0-10,4.62-11.41,9.22a12.84,12.84,0,0,0-.74,4.52v30.61h-9Z" transform="translate(-0.48 -39.99)"/><path class="cls-1" d="M343.21,358.86l-.74-6.4h-.32A18.86,18.86,0,0,1,326.64,360c-10.27,0-15.52-7.23-15.52-14.57,0-12.27,10.9-19,30.51-18.87v-1.05c0-4.2-1.15-11.74-11.53-11.74a25.2,25.2,0,0,0-13.21,3.77l-2.1-6.08A31.53,31.53,0,0,1,331.46,307c15.51,0,19.29,10.59,19.29,20.76v19a71.42,71.42,0,0,0,.83,12.16ZM341.83,333c-10.06-.21-21.48,1.57-21.48,11.43,0,6,4,8.8,8.7,8.8a12.61,12.61,0,0,0,12.27-8.48,9.83,9.83,0,0,0,.51-2.94Z" transform="translate(-0.48 -39.99)"/><path class="cls-1" d="M376,293.85c.11,3.15-2.2,5.67-5.87,5.67a5.48,5.48,0,0,1-5.54-5.67,5.62,5.62,0,0,1,5.76-5.76,5.47,5.47,0,0,1,5.65,5.76m-10.26,14.27H375v50.74h-9.23Z" transform="translate(-0.48 -39.99)"/><rect class="cls-1" x="389.81" y="244.42" width="500px" height="500px"/></svg>